<?xml version="1.0" encoding="UTF-8" standalone="no"?>
<!-- Generator: Adobe Illustrator 15.1.0, SVG Export Plug-In . SVG Version: 6.00 Build 0)  -->
<svg xmlns:rdf="http://www.w3.org/1999/02/22-rdf-syntax-ns#" xmlns="http://www.w3.org/2000/svg" enable-background="new 0 0 215.595 122.994" xml:space="preserve" height="89.495" viewBox="0 0 122.238 89.495" width="122.238" version="1.1" y="0px" x="0px" xmlns:cc="http://creativecommons.org/ns#" xmlns:xlink="http://www.w3.org/1999/xlink" xmlns:dc="http://purl.org/dc/elements/1.1/"><metadata><rdf:RDF><cc:Work rdf:about=""><dc:format>image/svg+xml</dc:format><dc:type rdf:resource="http://purl.org/dc/dcmitype/StillImage"/><dc:title/></cc:Work></rdf:RDF></metadata><g fill="#231f20"><polygon points="69.61 73.699 66.475 73.699 66.475 79.881 65.035 79.881 65.035 72.495 71.05 72.495 71.05 79.881 69.61 79.881" transform="translate(-54.389,-18.721)"/><path d="m19.823 59.612-0.678 1.548h-1.518l3.096-7.386h1.234l3.057 7.386h-1.537l-0.657-1.548h-2.997zm2.546-1.177-1.049-2.653-1.047 2.653h2.096z"/><polygon points="85.672 77.47 85.672 72.495 87.111 72.495 87.111 79.881 85.925 79.881 81.625 74.884 81.616 74.884 81.616 79.881 80.175 79.881 80.175 72.495 81.35 72.495 85.661 77.47" transform="translate(-54.389,-18.721)"/><polygon points="92.967 76.629 90.42 76.629 90.42 78.638 93.076 78.638 93.076 79.881 88.98 79.881 88.98 72.495 93.076 72.495 93.076 73.748 90.42 73.748 90.42 75.386 92.967 75.386" transform="translate(-54.389,-18.721)"/><polygon points="99.293 73.699 96.158 73.699 96.158 79.881 94.717 79.881 94.717 72.495 100.734 72.495 100.734 79.881 99.293 79.881" transform="translate(-54.389,-18.721)"/><rect height="7.385" width="1.439" y="53.775" x="48.4"/><polygon points="111.221 72.495 111.221 73.749 108.165 73.749 109.821 76.051 108.028 78.628 111.437 78.628 111.437 79.881 105.335 79.881 108.058 76.051 105.46 72.495" transform="translate(-54.389,-18.721)"/><polygon points="112.228 73.749 112.228 72.495 116.999 72.495 116.999 73.749 115.333 73.749 115.333 79.881 113.895 79.881 113.895 73.749" transform="translate(-54.389,-18.721)"/><polygon points="124.091 79.881 122.648 79.881 122.648 76.607 119.515 76.607 119.515 79.881 118.076 79.881 118.076 72.495 119.515 72.495 119.515 75.404 122.648 75.404 122.648 72.495 124.091 72.495" transform="translate(-54.389,-18.721)"/><polygon points="129.788 77.198 131.769 72.495 132.845 72.495 134.139 79.881 132.679 79.881 131.983 75.336 131.964 75.336 130.015 79.881 129.554 79.881 127.644 75.336 127.624 75.336 126.89 79.881 125.44 79.881 126.782 72.495 127.87 72.495" transform="translate(-54.389,-18.721)"/><rect height="7.385" width="1.441" y="53.775" x="81.225"/><path d="m85.663 59.612-0.674 1.548h-1.521l3.095-7.386h1.236l3.055 7.386h-1.537l-0.656-1.548h-2.998zm2.547-1.177-1.048-2.653-1.048 2.653h2.096z"/><polygon points="149.208 75.912 152.247 79.881 150.356 79.881 147.533 76.031 147.533 79.881 146.094 79.881 146.094 72.495 147.533 72.495 147.533 75.903 150.257 72.495 152.079 72.495" transform="translate(-54.389,-18.721)"/><polygon points="156.995 76.629 154.448 76.629 154.448 78.638 157.103 78.638 157.103 79.881 153.008 79.881 153.008 72.495 157.103 72.495 157.103 73.748 154.448 73.748 154.448 75.386 156.995 75.386" transform="translate(-54.389,-18.721)"/><polygon points="163.908 72.495 163.908 73.749 160.854 73.749 162.509 76.051 160.714 78.628 164.125 78.628 164.125 79.881 158.022 79.881 160.745 76.051 158.148 72.495" transform="translate(-54.389,-18.721)"/><polygon points="72.544 86.583 69.997 86.583 69.997 88.593 72.651 88.593 72.651 89.837 68.557 89.837 68.557 82.451 72.651 82.451 72.651 83.703 69.997 83.703 69.997 85.342 72.544 85.342" transform="translate(-54.389,-18.721)"/><polygon points="77.36 85.869 80.398 89.838 78.507 89.838 75.687 85.987 75.687 89.838 74.246 89.838 74.246 82.451 75.687 82.451 75.687 85.859 78.41 82.451 80.231 82.451" transform="translate(-54.389,-18.721)"/><path d="m26.144 71.116 3.097-7.386h1.234l3.055 7.386h-7.386zm3.695-5.378-1.677 4.134h3.332l-1.655-4.134z"/><path d="m41.346 67.355c0 2.292-1.725 3.967-3.987 3.967-2.254 0-3.979-1.675-3.979-3.967 0-2.187 1.862-3.833 3.979-3.833 2.127 0 3.987 1.647 3.987 3.833m-1.488 0c0-1.313-1.067-2.449-2.498-2.449-1.432 0-2.498 1.136-2.498 2.449 0 1.467 1.136 2.585 2.498 2.585 1.36 0 2.498-1.118 2.498-2.585"/><polygon points="101.707 82.452 101.707 83.703 98.652 83.703 100.308 86.007 98.514 88.583 101.924 88.583 101.924 89.837 95.82 89.837 98.543 86.007 95.948 82.452" transform="translate(-54.389,-18.721)"/><polygon points="107.261 86.583 104.714 86.583 104.714 88.593 107.368 88.593 107.368 89.837 103.274 89.837 103.274 82.451 107.368 82.451 107.368 83.703 104.714 83.703 104.714 85.342 107.261 85.342" transform="translate(-54.389,-18.721)"/><rect height="7.385" width="1.439" y="63.731" x="54.908"/><polygon points="117.446 82.452 117.446 83.703 114.39 83.703 116.046 86.007 114.252 88.583 117.661 88.583 117.661 89.837 111.56 89.837 114.283 86.007 111.687 82.452" transform="translate(-54.389,-18.721)"/><polygon points="125.476 85.869 128.513 89.838 126.622 89.838 123.804 85.987 123.804 89.838 122.36 89.838 122.36 82.451 123.804 82.451 123.804 85.859 126.525 82.451 128.347 82.451" transform="translate(-54.389,-18.721)"/><path d="m75.23 63.729h1.526c2.125 0 3.34 0.52 3.34 2.294 0 1.656-1.057 2.339-2.604 2.339h-0.824v2.754h-1.438v-7.387zm1.439 3.429h0.312c0.814 0 1.656-0.077 1.656-1.118 0-1.036-0.852-1.105-1.676-1.105h-0.293v2.223z"/><polygon points="141.587 89.838 140.149 89.838 140.149 86.564 137.013 86.564 137.013 89.838 135.571 89.838 135.571 82.451 137.013 82.451 137.013 85.359 140.149 85.359 140.149 82.451 141.587 82.451" transform="translate(-54.389,-18.721)"/><polygon points="142.692 83.703 142.692 82.452 147.463 82.452 147.463 83.703 145.796 83.703 145.796 89.837 144.357 89.837 144.357 83.703" transform="translate(-54.389,-18.721)"/><polygon points="154.466 89.838 153.024 89.838 153.024 86.564 149.892 86.564 149.892 89.838 148.451 89.838 148.451 82.451 149.892 82.451 149.892 85.359 153.024 85.359 153.024 82.451 154.466 82.451" transform="translate(-54.389,-18.721)"/><polygon points="161.194 82.452 161.194 83.703 158.138 83.703 159.792 86.007 157.999 88.583 161.409 88.583 161.409 89.837 155.305 89.837 158.029 86.007 155.435 82.452" transform="translate(-54.389,-18.721)"/></g><a xlink:href="http://www.cup.gr" target="_blank"><path d="m80.596 37.951c0.045-1.102-0.247-15.761-0.328-21.877-0.02-1.407-0.041-2.658-0.081-4.324-0.006-0.165 0.005-0.292 0.011-0.396 0.021-0.263 0.029-0.348-0.238-0.601-0.241-0.234-0.494-0.422-0.765-0.627-0.231-0.175-0.464-0.353-0.696-0.557-0.451-0.414-1.038-0.815-1.668-1.245-0.876-0.603-1.778-1.221-2.354-1.907-0.439-0.516-0.965-0.736-1.77-0.736-0.345 0-0.705 0.035-1.086 0.081h-0.016c-0.717 0.076-1.41 0.109-2.18 0.109-0.672 0-1.316-0.02-1.985-0.052-0.718-0.033-1.455-0.065-2.278-0.065-0.075 0-3.164-0.041-4.395-0.09-1.17-0.038-2.379-0.086-3.574-0.089-0.674-0.004-1.367-0.06-2.027-0.115-0.674-0.056-1.367-0.115-2.055-0.115-0.055 0-0.104 0-0.156 0.004-0.18 0-3.251-0.301-3.536-0.317-0.427-0.024-0.855-0.032-1.268-0.032-2.016 0-4.694 0.273-5.985 1.581-0.731 0.743-1.841 4.765-1.199 11.905 0.09 1.053 0.177 2.146 0.188 3.216 0.072 4.452-0.157 12.917-0.157 12.917 0 1.035-0.006 2.015-0.127 3.079-0.083 0.724-0.169 1.979 0.114 2.453 0.341 0.574 0.605 0.751 1.505 0.986 1.462 0.382 4.667 0.113 6.358 0.182 0.782 0.032 1.522 0.174 2.341 0.2 2.734 0.087 4.897 0.062 7.414-0.2 0.687-0.071 2.491-0.072 2.855-0.316 0.353-0.234 0.392-1.434 0.476-2.127 0.175-1.425 0.163-4.928 0.218-6.868 0.011-0.107 0.022-0.212 0.037-0.315 0.036-0.275 0.175-0.412 0.419-0.412 0.072 0 6.053 0.021 6.418 0.021 0.642 0 2.085 0.235 2.104-1.484 0.003-0.18 0.025-0.347 0.033-0.472 0.053-0.615 0.088-1.249 0.109-1.948 0.045-1.613-0.031-3.252-0.107-4.839-0.041-0.858-0.082-1.75-0.102-2.629-0.043-1.541 0.225-3.153-0.141-4.483-0.105-0.376-0.295-0.53-0.505-0.596-0.245-0.074-3.802-0.159-4.503-0.159-1.383 0-2.804 0.055-4.176 0.113-0.747 0.029-1.525 0.062-2.283 0.081-2.383 0.067-4.835 0.156-7.313 0.266-0.204 0.01-0.621-0.041-0.967 0.123-0.16 0.075-0.231 0.602-0.231 0.827 0 0.145 0 0.246-0.004 0.301l-0.01 0.105c-0.088 1.13-0.182 2.293-0.262 3.439-0.188 2.639-0.309 5.072-0.358 7.45-0.015 0.778-0.024 1.589-0.035 2.398 0 0.41-0.171 3.384-0.154 3.506 0.029 0.231-0.004 0.579 0.099 0.681 0.075 0.073 0.45 0.022 0.846 0.022 0.111 0 2.248-0.112 3.234-0.112 2.095 0 2.341 0.271 2.767 0.745 0.076 0.109 0.871 2.819-1.238 2.643-2.016-0.17-2.295-0.097-4.312-0.097-0.9 0-3.978-0.093-4.74-0.16-1.136-0.098-1.323-1.232-1.303-2.31 0 0-0.006-3.813 0.103-6.233 0.039-1.034-0.014-6.125-0.105-7.006-0.057-0.479-0.109-0.968-0.124-1.458-0.042-1.817 0.087-3.604 0.208-5.331 0.072-1.028 0.123-1.669 0.167-2.737 0.004-0.163 0.303-1.003 0.639-1.253 0.073-0.057 1.244-0.368 1.772-0.451 1.099-0.167 2.278-0.246 3.738-0.246 1.208 0 2.427 0.055 3.604 0.112 0.59 0.027 3.592-0.056 3.791-0.006 0.56 0.133 3.144 0.372 3.459 0.372 0.621 0 6.854 0.245 7.206 0.245 0.843 0 4.479 0.145 4.711 0.145 0.552 0 0.978 0.037 1.386 0.117 0.655 0.129 0.602 1.198 0.56 1.978-0.009 0.173-0.019 0.327-0.019 0.449 0.037 2.837-0.106 5.724-0.238 8.51l-0.018 0.341c-0.061 1.287-0.13 2.594-0.195 3.858-0.082 1.503-0.165 7.737-0.168 8.016 0 0.487 0.014 1.726-0.186 2.125-1.369 0.396-3.393 0.178-5.037 0.178-0.757 0-1.774 0.021-2.73 0.021-0.751 0-0.951 0.092-1.094 0.57-0.205 0.707 0.946 0.902 1.826 0.961 0.912 0.064 4.405 0.122 5.992 0.026 0.352-0.023 0.746-0.067 1.258-0.124 0.466-0.051 0.948 0 1.23-0.326 0.164-0.19 0.246-1.067 0.294-2.234 0.103-2.447 0.028-5.825 0.054-7.4l0.025-1.65c0.067-4.235-0.049-8.47-0.009-12.698 0.007-0.614-0.11-2.68 1.166-1.089 0.003 0.004 0.555 1.029 0.555 1.945 0 0.812 0.067 1.334 0.124 2.282 0.029 0.513 0.056 1.042 0.049 1.548-0.008 1.132-0.046 2.279-0.081 3.392l-0.02 0.616c-0.093 2.864-0.072 5.767-0.06 8.568 0.013 1.152-0.143 7.683-0.377 8.108-0.201 0.359-1.263 0.615-1.909 0.722-2.343 0.384-3.331 0.263-5.938 0.101-0.545-0.034-1.621-0.203-2.077-0.24-1.075-0.09-2.866 0.262-3.374-0.35-0.295-0.351-0.289-1.685-0.289-2.435 0-0.739-0.173-2.097 0.968-2.213 0.811-0.084 1.729-0.038 2.541-0.002 0.71 0.03 2 0.062 2.711 0.062 2.148 0 3.11-0.316 3.118-0.981 0.019-2.956-0.242-6.231-0.238-9.197 0.006-2.794 0.422-5.622 0.297-8.407-0.118-2.558 0.181-3.762-2.561-3.762-0.1 0-1.244 0.008-1.341 0.008-0.22 0-0.39-0.005-0.554-0.008-0.678-0.017-3.555-0.342-4.232-0.352-0.509-0.006-2.951-0.26-3.889-0.24-1.862 0.043-3.752 0.119-5.582 0.192-1.133 0.042-2.293 0.091-3.444 0.13-1.726 0.059-3.25 0.086-4.644 0.086-0.604 0.744-0.55 1.826-0.505 2.778 0.005 0.146 0.018 0.288 0.021 0.424 0.029 0.818-0.062 1.639-0.158 2.433-0.06 0.548-0.125 1.122-0.15 1.684-0.024 0.583-0.049 1.163-0.074 1.74-0.03 0.793-0.066 1.584-0.096 2.373-0.112 2.759-0.212 5.715-0.177 8.619 0.007 0.739 0.029 1.289 0.059 2.103 0.006 0.154 0.023 1.077 0.025 1.09 0.078 0.295 0.205 0.523 0.618 0.553 0.196 0.013 0.763 0.042 1.5 0.076 1.135-0.07 4.803 0.073 5.225 0.097 0.199 0.011 0.658 0.034 0.835-0.078 0.146-0.094 0.142-0.281 0.069-0.408-0.062-0.107-0.188-0.312-0.345-0.397-0.073-0.042-0.219-0.114-0.288-0.138-0.178-0.067-0.367-0.082-0.557-0.067-0.203 0.013-5.518 0.291-5.948-0.234-0.002-0.006-0.151-0.161-0.166-0.249-0.598-3.608-0.202-6.97 0.186-10.483 0.167-1.512 0.343-3.078 0.431-4.619 0.046-0.735 0.033-1.487 0.023-2.21-0.01-0.704-0.013-1.426 0.023-2.137 0.002-0.095 0.002-0.192 0.002-0.303 0.006-0.505 0.01-1.145 0.498-1.424 0.432-0.248 0.962-0.395 1.607-0.459 0.67-0.063 1.379-0.091 2.232-0.091 0.656 0 1.322 0.017 1.969 0.035 0.642 0.018 1.312 0.035 1.967 0.035 0.553 0 1.047-0.015 1.506-0.039 0.484-0.031 11.597 0.275 12.764 0.46 0.02 0.005 0.069 0.009 0.128 0.014 1.165 0.159 1.518 0.278 1.512 0.521-0.021 0.695-0.032 1.424-0.034 2.167-0.027 2.019-0.004 4.074 0.014 6.062 0.008 0.68 0.013 1.355 0.021 2.037 0.009 1.522 0.009 2.87 0 4.131-0.013 0.647-0.026 1.314-0.04 2.05-0.006 0.115 0.002 0.247 0.008 0.384 0.022 0.504 0.056 1.368-0.339 1.711-1.014 0.884-1.646 0.993-2.521 0.993-0.517 0-1.611-0.048-2.129-0.093-0.515-0.045-1.051-0.092-1.568-0.092h-0.07c-0.542 0-2.191-0.199-2.284 0.207-0.129 0.54-0.123 0.867-0.138 1.578-0.078 0.855-0.026 1.267-0.137 2.282-0.059 0.571-0.032 1.224-0.084 1.967-0.042 0.622-0.268 1.437 0.084 1.764 0.477 0.438 1.904 0.082 2.938 0.041 0.72-0.028 7.877 0.095 10.897-0.075 0.435-0.022 1.604 0.158 1.908-0.039 0.701-0.457 0.796-1.741 0.841-2.891m-4.91-28.835c-0.01 0.034-0.043 0.138-0.188 0.154-0.308 0.029-1.286-0.088-1.819-0.1-0.32-0.009-2.346 0.1-3.775 0.1-1.246 0-6.32-0.195-6.832-0.168-0.52 0.027-1.056 0.06-1.586 0.06-1.42 0-2.873-0.101-4.27-0.197-1.008-0.073-2.062-0.147-3.1-0.183-0.649-0.018-1.408-0.031-2.199-0.031-3.853 0-6.116-0.233-6.76 0.389-0.274 0.261-0.389 0.629-0.45 0.919-0.118 0.602-0.152 0.789-0.158 1.366-0.013 0.521-0.013 0.892-0.015 1.261 0 0.544 0 1.018-0.025 1.812-0.053 1.591 0.181 3.213 0.102 4.775-0.078 1.42-0.165 2.895-0.214 4.338-0.075 1.996-0.01 4.006 0.042 5.954 0.033 1.035 0.06 2.105 0.074 3.159 0.005 0.414 0.034 1.063 0.03 1.474-0.002 0.701-0.425 3.315 0.531 3.868 0.426 0.244 3.177 0.301 3.517 0.318 2.217 0.115 3.363 0.095 5.582 0.101 1 0.004 2.453-0.104 3.444-0.269 1.144-0.196 1.048-0.38 1.086-1.395 0.013-0.375-0.004-0.679-0.021-1.068-0.01-0.233-0.012-0.645-0.029-1.012h0.004c-0.01-0.093-0.016-0.184-0.024-0.279-0.038-0.455-0.073-1.262-0.278-1.413-0.424-0.314-1.576-0.053-2.454-0.084-0.372-0.015-0.685-0.026-0.873-0.034-0.927-0.053-0.759-0.098-1.331-0.128-0.268-0.014-0.573-0.023-1.002-0.051h-0.06-0.132c-0.675 0-1.043-0.043-1.049-0.293-0.012-0.366-0.031-0.734-0.053-1.011-0.038-0.482-0.088-0.975-0.14-1.451-0.019-0.198-0.038-0.399-0.053-0.598-0.123-1.316-0.123-2.642 0-4.054l0.015-0.231c0.119-1.381 0.239-2.795 0.231-4.199-0.016-1.228-0.027-2.494 0.154-3.745 0.063-0.461 0.141-0.787 0.49-0.787 0.08 0 0.161 0.016 0.254 0.03 0.127 0.022 1.276-0.03 1.478-0.03 0.359 0 3.529-0.254 5.081-0.284 0.558-0.013 3.341-0.133 4.075-0.123 0.721 0.007 1.479 0.01 2.221 0.01 0.748 0 1.406-0.003 2.014-0.02 0.701-0.017 1.337-0.04 1.938-0.078 0.098-0.004 0.168-0.014 0.231-0.023 0.075-0.008 0.136-0.018 0.188-0.018 0.33 0 0.35 0.293 0.356 0.57 0.033 0.757 0.085 1.518 0.136 2.252 0.039 0.604 0.079 1.229 0.111 1.841 0.135 2.65 0.168 5.766-0.604 8.807-0.09 0.365-0.275 0.53-0.579 0.53-0.114 0-0.235-0.024-0.364-0.048-0.146-0.022-1.584 0.012-2.136 0.071-0.106 0.018-0.212 0.022-0.321 0.038-0.426 0.042-0.916 0.089-1.404 0.089-0.861 0-1.524-0.142-2.115-0.447-0.897-0.478-0.586-0.808-0.701-2.626-0.004-0.111 0.02-1.001-0.188-1.123-0.251-0.16-0.53-0.274-0.829-0.345-0.198-0.046-0.41-0.071-0.607-0.071-0.26 0-0.62 0.043-0.896 0.244-0.229 0.168-0.439 0.467-0.666 0.788-0.383 0.561-0.816 0.876-1.467 0.876-0.174 0-0.354-0.043-0.533-0.134-1.028-0.498-0.906-1.977-0.83-3.051 0.012-0.111 0.014-0.221 0.023-0.314 0.002-0.027 0.002-0.063 0.002-0.113 0.064-1.533 0.314-1.914 0.534-1.978 0.587-0.165 1.265-0.364 2.024-0.435 0.666-0.062 3.516 0 4.052 0 0.2 0 1.849 0.062 2.048 0.058h0.023c0.178 0 0.315 0.046 0.406 0.14 0.154 0.151 0.065 0.807 0.065 1.527 0 0.978 0.417 1.638 0.901 1.343 0.594-0.357 0.873-2.691 0.301-3.485-0.359-0.504-0.741-0.629-1.04-0.629-0.019 0-0.037 0-0.052 0.003-0.674 0.069-1.336 0.123-1.973 0.159-0.605 0.031-1.269 0.048-2.014 0.048-0.746 0-1.507-0.017-2.24-0.03l-0.064-0.004c-0.139-0.003-0.347-0.014-0.59-0.037-0.41-0.03-0.92-0.075-1.393-0.075-1.004 0-1.189 0.193-1.217 0.277-0.275 0.697-0.287 1.55-0.29 2.373-0.002 0.303-0.002 0.589-0.022 0.864-0.064 1.213-0.083 2.5 0.271 3.681 0.131 0.429 0.853 1.118 2.288 1.043 0.486-0.027 0.89-0.166 1.065-0.247 0.301-0.142 0.436-0.5 0.578-0.87 0.182-0.479 0.277-0.851 0.905-0.851 0.066 0 0.327 0.07 0.401 0.176 0.301 0.377 0.128 1.503 0.074 1.715-0.146 0.566-0.48 1.041-0.951 1.335-1.654 1.048-6.162 0.874-6.229-1.721-0.004-0.127-0.004-0.236-0.012-0.307-0.051-0.626-0.076-1.281-0.082-1.941-0.008-1.255 0.064-2.594 0.217-4.215 0.055-0.58 0.119-1.175 0.194-1.81 0.062-0.499 0.376-0.574 0.705-0.662 0.057-0.013 0.124-0.029 0.182-0.046 1.98-0.569 4.11-0.617 5.942-0.617 0.246 0 0.492 0.001 0.74 0.001 1.078 0.009 2.173 0.034 3.234 0.065 0.376 0.012 2.226-0.156 2.592 0.179 0.23 0.208 0.385 0.734 0.4 1.121 0.095 2.382 0.408 4.316-0.08 5.8-0.352 1.087-0.812 1.763-1.886 1.763-0.103 0-0.206-0.004-0.319-0.02-0.879-0.099-1.168-1.437-1.349-2.232-0.02-0.109-0.038-0.206-0.06-0.285-0.295-1.164-0.707-1.886-1.867-1.886-0.045 0-0.095 0.003-0.137 0.003-0.205 0.012-0.422 0.013-0.672 0.013-0.252 0-0.514-0.001-0.765-0.009-0.247-0.004-0.506-0.007-0.762-0.007-0.399 0-0.72 0.012-1.025 0.038-1.254 0.11-1.861 0.586-1.865 1.441-0.003 0.104-0.134 1.638 0.345 1.342 0.502-0.311 0.318-1.016 0.721-1.416 0.443-0.443 0.828-0.452 1.361-0.47 0.053-0.002 0.109-0.002 0.168-0.003 0.207-0.013 0.426-0.014 0.639-0.014 0.43 0 0.882 0.015 1.34 0.046h0.223c0.859 0.005 1.311 0.042 1.421 0.243 0.324 0.592 0.345 1.235 0.357 1.858 0.013 0.538 0.018 1.047 0.221 1.517 0.191 0.456 0.679 0.675 1.485 0.675 0.327 0 0.654-0.033 0.916-0.062l0.054-0.005c0.77-0.08 2.19-0.219 2.424-1.134 0.198-0.779 0.154-1.628 0.11-2.437-0.02-0.377-0.039-0.762-0.037-1.139 0.002-0.402 0.037-0.852 0.072-1.322 0.123-1.647 0.265-3.513-0.827-4.598-0.158-0.161-0.405-0.234-0.769-0.234-0.233 0-0.484 0.033-0.726 0.062-0.163 0.022-0.321 0.04-0.472 0.048-0.66 0.038-1.328 0.079-1.988 0.121l-1.037 0.062c-0.873 0.054-1.744 0.105-2.617 0.153-1.517 0.086-2.848 0.146-4.082 0.192-0.699 0.022-1.379 0.043-2.041 0.059-0.32 0.008-0.644 0.018-0.963 0.02-0.055 0.329-0.104 0.646-0.15 0.962-0.402 2.779-0.463 5.595-0.516 8.319-0.01 0.238-0.012 0.508-0.018 0.786-0.017 0.627-0.03 1.28-0.043 1.816-0.016 0.451 0.307 0.688 0.828 0.931 0.916 0.428 2.018 0.461 2.975 0.461 0.449 0 0.907-0.021 1.356-0.043 0.454-0.021 0.921-0.043 1.382-0.043 0.424 0 0.797 0.022 1.148 0.059 0.232 0.027 0.392-0.006 0.315 3.305l-0.003 0.002c-0.009 0.342-0.021 0.696-0.021 1.086-0.019 1.395-0.129 2.653-0.346 3.828-0.797 0.214-2.131 0.331-2.929 0.394-1.603 0.129-3.253-0.008-4.905-0.008-1.454 0-2.78 0.093-4.168-0.125-1.137-0.069-2.583 0.054-3.721 0.051-0.843-0.001-1.589-0.084-2.007-0.976-0.408-0.859-0.411-1.868-0.358-2.78 0.025-0.455 0.016-1.323 0.016-1.323 0.021-2.516 0.017-4.938 0-7.946-0.006-1.422 0.04-2.865 0.083-4.259 0.051-1.549 0.099-3.147 0.081-4.717-0.04-2.229 0.103-3.574 0.294-5.441 0.046-0.429 0.097-0.893 0.145-1.394 0.007-0.106 0.019-0.213 0.028-0.322 0.176-1.877 0.391-4.214 2.854-4.214 0.46 0 0.913 0.04 1.362 0.077 0.433 0.035 2.769 0 3.196 0 0.459 0 10.716 0.759 15.001 0.867 1.047 0.022 6.41-0.005 6.43-0.005 0.233 0 1.058-0.082 1.249-0.082 0.417 0 0.753 0.096 1.08 0.305 0.055 0.036 0.46 0.328 0.837 0.638 0.751 0.61 0.783 0.774 0.761 0.895" fill-rule="evenodd" clip-rule="evenodd" fill="#231f20"/></a><g fill="#231f20"><rect height="4.562" width="0.892" y="79.805" x="5"/><path d="m6.762 84.368 1.912-4.562h0.764l1.886 4.562h-4.562zm2.283-3.322-1.034 2.556h2.054l-1.02-2.556z"/><path d="m11.882 79.805h0.943c1.314 0 2.063 0.321 2.063 1.417 0 1.021-0.651 1.444-1.608 1.444h-0.509v1.701h-0.889v-4.562zm0.889 2.117h0.194c0.502 0 1.022-0.046 1.022-0.688 0-0.641-0.526-0.686-1.035-0.686h-0.181v1.374z"/><polygon points="72.746 98.526 73.798 98.526 72.207 100.997 72.207 103.089 71.317 103.089 71.317 100.997 69.727 98.526 70.778 98.526 71.759 100.106" transform="translate(-54.389,-18.721)"/><polygon points="76.799 101.432 78.02 98.525 78.687 98.525 79.486 103.089 78.584 103.089 78.156 100.28 78.143 100.28 76.938 103.089 76.655 103.089 75.475 100.28 75.463 100.28 75.01 103.089 74.113 103.089 74.945 98.525 75.614 98.525" transform="translate(-54.389,-18.721)"/><path d="m27.063 83.41-0.417 0.958h-0.935l1.91-4.563h0.763l1.886 4.563h-0.949l-0.407-0.958h-1.851zm1.573-0.725-0.646-1.64-0.649 1.64h1.295z"/><polygon points="87.664 99.302 87.664 98.525 90.608 98.525 90.608 99.302 89.581 99.302 89.581 103.089 88.689 103.089 88.689 99.302" transform="translate(-54.389,-18.721)"/><polygon points="94.174 101.081 92.6 101.081 92.6 102.322 94.24 102.322 94.24 103.089 91.708 103.089 91.708 98.526 94.24 98.526 94.24 99.302 92.6 99.302 92.6 100.31 94.174 100.31" transform="translate(-54.389,-18.721)"/><polygon points="97.798 98.526 98.861 98.526 97.475 100.675 99.019 103.089 97.973 103.089 96.956 101.419 95.873 103.089 94.826 103.089 96.442 100.675 95.081 98.526 96.15 98.526 96.956 99.936" transform="translate(-54.389,-18.721)"/><polygon points="103.078 101.6 103.078 98.526 103.969 98.526 103.969 103.089 103.237 103.089 100.58 100.003 100.576 100.003 100.576 103.089 99.684 103.089 99.684 98.526 100.411 98.526 103.073 101.6" transform="translate(-54.389,-18.721)"/><path d="m55.207 82.045c0 1.416-1.064 2.45-2.462 2.45-1.391 0-2.456-1.034-2.456-2.45 0-1.352 1.151-2.365 2.456-2.365 1.312-0.001 2.462 1.013 2.462 2.365m-0.918 0c0-0.812-0.66-1.512-1.544-1.512s-1.542 0.699-1.542 1.512c0 0.906 0.702 1.597 1.542 1.597 0.842-0.001 1.544-0.691 1.544-1.597"/><polygon points="111.677 98.526 112.442 98.526 114.329 103.089 113.378 103.089 112.047 99.767 110.703 103.089 109.767 103.089" transform="translate(-54.389,-18.721)"/><path d="m65.03 82.045c0 1.416-1.067 2.45-2.468 2.45-1.39 0-2.452-1.034-2.452-2.45 0-1.352 1.15-2.365 2.452-2.365 1.316-0.001 2.468 1.013 2.468 2.365m-0.921 0c0-0.812-0.659-1.512-1.547-1.512-0.878 0-1.54 0.699-1.54 1.512 0 0.906 0.703 1.597 1.54 1.597 0.845-0.001 1.547-0.691 1.547-1.597"/><polygon points="120.267 98.526 122.691 98.526 122.691 99.302 121.155 99.302 121.155 103.089 120.267 103.089" transform="translate(-54.389,-18.721)"/><rect height="4.562" width=".889" y="79.805" x="69.01"/><path d="m71.932 83.41-0.416 0.958h-0.938l1.913-4.563h0.761l1.888 4.563h-0.949l-0.403-0.958h-1.856zm1.575-0.725-0.647-1.64-0.65 1.64h1.297z"/><polygon points="133.497 98.525 133.497 99.302 131.611 99.302 132.632 100.722 131.526 102.315 133.632 102.315 133.632 103.089 129.861 103.089 131.544 100.722 129.941 98.525" transform="translate(-54.389,-18.721)"/><path d="m85.034 83.853c-0.398 0.357-0.928 0.626-1.471 0.626-0.767 0-1.426-0.523-1.426-1.319 0-0.751 0.488-0.995 1.081-1.368-0.188-0.208-0.458-0.54-0.458-0.962 0-0.71 0.572-1.134 1.238-1.134 0.646 0 1.247 0.412 1.247 1.103 0 0.545-0.407 0.857-0.834 1.121 0.247 0.283 0.5 0.58 0.753 0.863 0.201-0.204 0.395-0.412 0.566-0.636l0.524 0.513c-0.2 0.219-0.424 0.445-0.593 0.669l0.919 1.039h-1.106l-0.44-0.515zm-1.355-1.553c-0.208 0.127-0.649 0.415-0.649 0.762 0 0.35 0.339 0.623 0.674 0.623 0.318 0 0.598-0.193 0.833-0.386-0.288-0.334-0.575-0.667-0.858-0.999m0.828-1.506c0-0.273-0.195-0.461-0.466-0.461-0.243 0-0.441 0.17-0.441 0.431 0 0.205 0.127 0.361 0.256 0.514l0.132 0.162c0.219-0.11 0.519-0.376 0.519-0.646"/><polygon points="145.867 101.081 144.294 101.081 144.294 102.322 145.934 102.322 145.934 103.089 143.405 103.089 143.405 98.526 145.934 98.526 145.934 99.302 144.294 99.302 144.294 100.31 145.867 100.31" transform="translate(-54.389,-18.721)"/><path d="m92.561 79.805h0.943c1.314 0 2.064 0.321 2.064 1.417 0 1.021-0.654 1.444-1.61 1.444h-0.507v1.701h-0.891v-4.562zm0.891 2.117h0.191c0.501 0 1.023-0.046 1.023-0.688 0-0.641-0.525-0.686-1.037-0.686h-0.178v1.374z"/><polygon points="153.231 101.081 151.657 101.081 151.657 102.322 153.298 102.322 153.298 103.089 150.769 103.089 150.769 98.526 153.298 98.526 153.298 99.302 151.657 99.302 151.657 100.31 153.231 100.31" transform="translate(-54.389,-18.721)"/><polygon points="156.849 98.526 157.903 98.526 156.313 100.997 156.313 103.089 155.422 103.089 155.422 100.997 153.832 98.526 154.882 98.526 155.864 100.106" transform="translate(-54.389,-18.721)"/><polygon points="161.774 101.6 161.774 98.526 162.664 98.526 162.664 103.089 161.935 103.089 159.276 100.003 159.271 100.003 159.271 103.089 158.379 103.089 158.379 98.526 159.107 98.526 161.771 101.6" transform="translate(-54.389,-18.721)"/><path d="m110.173 83.41-0.42 0.958h-0.938l1.91-4.563h0.764l1.888 4.563h-0.949l-0.405-0.958h-1.85zm1.57-0.725-0.646-1.64-0.646 1.64h1.292z"/><polygon points="171.494 98.525 171.494 99.302 169.605 99.302 170.625 100.722 169.52 102.315 171.627 102.315 171.627 103.089 167.855 103.089 169.54 100.722 167.937 98.525" transform="translate(-54.389,-18.721)"/></g><a xlink:show="" target="_blank" fill-opacity="0" xlink:href="http://www.forth.gr/"><rect fill-opacity="0" height="10.1036" width="117.79" onclick="a" y="76.9615" x="2.04629"/></a><a xlink:href="http://www.cup.gr" transform="translate(6.90623 -2.04629)" target="_blank"><rect fill-opacity="0" height="71.6202" width="105.256" y="3.67867" x=".767359"/><a xlink:href="http://www.cup.gr" target="_blank"/></a></svg>
