<?xml version="1.0" encoding="UTF-8" standalone="no"?>
<!-- Generator: Adobe Illustrator 15.1.0, SVG Export Plug-In . SVG Version: 6.00 Build 0)  -->
<svg xmlns:rdf="http://www.w3.org/1999/02/22-rdf-syntax-ns#" xmlns="http://www.w3.org/2000/svg" version="1.1" xml:space="preserve" height="48.8879" width="184.821" enable-background="new 0 0 215.595 82.108" y="0px" x="0px" xmlns:cc="http://creativecommons.org/ns#" xmlns:dc="http://purl.org/dc/elements/1.1/" viewBox="0 0 184.82068 48.887908"><metadata><rdf:RDF><cc:Work rdf:about=""><dc:format>image/svg+xml</dc:format><dc:type rdf:resource="http://purl.org/dc/dcmitype/StillImage"/><dc:title/></cc:Work></rdf:RDF></metadata><path clip-rule="evenodd" d="m47.3517 40.047c0.049-1.172-0.262-16.763-0.349-23.268-0.019-1.497-0.043-2.827-0.086-4.6-0.006-0.175 0.006-0.311 0.012-0.42 0.023-0.279 0.031-0.37-0.253-0.639-0.257-0.25-0.526-0.449-0.814-0.667-0.246-0.187-0.494-0.375-0.74-0.593-0.48-0.439-1.105-0.867-1.775-1.324-0.931-0.641-1.891-1.298-2.503-2.028-0.467-0.548-1.026-0.783-1.883-0.783-0.365 0-0.748 0.038-1.154 0.086h-0.016c-0.762 0.082-1.5 0.117-2.318 0.117-0.715 0-1.401-0.021-2.112-0.056-0.763-0.035-1.548-0.069-2.423-0.069-0.08 0-3.364-0.043-4.674-0.096-1.244-0.04-2.531-0.091-3.801-0.095-0.717-0.004-1.455-0.062-2.156-0.122-0.717-0.06-1.455-0.124-2.186-0.124-0.058 0-0.111 0-0.166 0.006-0.191 0-3.459-0.32-3.76-0.338-0.455-0.026-0.91-0.034-1.349-0.034-2.145 0-4.992 0.291-6.365 1.682-0.778 0.79-1.959 5.067-1.276 12.662 0.096 1.119 0.188 2.282 0.201 3.42 0.077 4.735-0.166 13.738-0.166 13.738 0 1.102-0.007 2.143-0.136 3.275-0.088 0.77-0.18 2.104 0.121 2.608 0.363 0.611 0.644 0.799 1.601 1.05 1.555 0.405 4.963 0.12 6.762 0.192 0.832 0.034 1.619 0.186 2.49 0.213 2.908 0.093 5.209 0.065 7.885-0.213 0.73-0.075 2.65-0.076 3.037-0.336 0.375-0.249 0.416-1.525 0.506-2.263 0.186-1.515 0.174-5.24 0.232-7.305 0.012-0.114 0.024-0.226 0.039-0.335 0.038-0.293 0.186-0.438 0.446-0.438 0.076 0 6.438 0.022 6.826 0.022 0.682 0 2.217 0.251 2.236-1.578 0.004-0.191 0.028-0.369 0.037-0.502 0.055-0.654 0.092-1.328 0.116-2.072 0.048-1.716-0.034-3.459-0.114-5.146-0.043-0.913-0.088-1.861-0.109-2.796-0.045-1.639 0.24-3.354-0.15-4.769-0.112-0.399-0.313-0.564-0.536-0.634-0.261-0.079-4.043-0.169-4.789-0.169-1.472 0-2.982 0.059-4.441 0.12-0.795 0.031-1.623 0.066-2.428 0.087-2.535 0.071-5.142 0.166-7.779 0.282-0.217 0.011-0.66-0.044-1.029 0.131-0.17 0.08-0.246 0.64-0.246 0.88 0 0.153 0 0.262-0.004 0.319l-0.01 0.112c-0.094 1.201-0.194 2.438-0.279 3.658-0.2 2.807-0.329 5.395-0.381 7.924-0.016 0.828-0.026 1.689-0.037 2.551 0 0.437-0.182 3.599-0.164 3.729 0.031 0.246-0.004 0.616 0.105 0.725 0.08 0.078 0.479 0.023 0.9 0.023 0.118 0 2.391-0.119 3.44-0.119 2.228 0 2.49 0.287 2.943 0.791 0.08 0.117 0.926 3-1.318 2.812-2.143-0.181-2.44-0.103-4.586-0.103-0.957 0-4.231-0.099-5.041-0.17-1.209-0.104-1.408-1.312-1.387-2.457 0 0-0.006-4.056 0.11-6.629 0.041-1.101-0.014-6.515-0.112-7.451-0.06-0.51-0.115-1.029-0.131-1.551-0.045-1.934 0.092-3.833 0.221-5.67 0.076-1.094 0.131-1.775 0.178-2.912 0.004-0.173 0.322-1.066 0.679-1.332 0.077-0.061 1.323-0.392 1.885-0.48 1.168-0.178 2.422-0.262 3.975-0.262 1.285 0 2.582 0.059 3.834 0.12 0.627 0.027 3.82-0.061 4.031-0.007 0.596 0.142 3.344 0.396 3.68 0.396 0.66 0 7.289 0.26 7.664 0.26 0.896 0 4.764 0.154 5.01 0.154 0.587 0 1.039 0.039 1.473 0.125 0.698 0.137 0.641 1.274 0.596 2.103-0.01 0.185-0.02 0.349-0.02 0.479 0.039 3.017-0.113 6.087-0.253 9.051l-0.019 0.362c-0.064 1.368-0.138 2.758-0.208 4.104-0.087 1.599-0.175 8.229-0.178 8.525 0 0.518 0.014 1.835-0.197 2.26-1.456 0.421-3.608 0.189-5.358 0.189-0.805 0-1.887 0.022-2.903 0.022-0.799 0-1.013 0.098-1.164 0.606-0.219 0.752 1.006 0.96 1.942 1.022 0.97 0.068 4.685 0.13 6.373 0.027 0.374-0.024 0.794-0.071 1.338-0.132 0.495-0.054 1.008 0 1.309-0.347 0.175-0.202 0.262-1.135 0.312-2.376 0.109-2.604 0.03-6.196 0.057-7.871l0.028-1.756c0.071-4.504-0.052-9.008-0.01-13.505 0.008-0.653-0.118-2.851 1.24-1.158 0.003 0.004 0.59 1.095 0.59 2.068 0 0.864 0.072 1.419 0.132 2.428 0.032 0.545 0.059 1.108 0.052 1.646-0.008 1.204-0.049 2.424-0.086 3.607l-0.021 0.655c-0.098 3.046-0.077 6.133-0.063 9.113 0.013 1.226-0.151 8.171-0.402 8.623-0.214 0.383-1.342 0.654-2.03 0.768-2.491 0.408-3.542 0.279-6.316 0.107-0.578-0.036-1.724-0.216-2.209-0.256-1.144-0.096-3.048 0.278-3.589-0.371-0.313-0.373-0.307-1.792-0.307-2.59 0-0.786-0.184-2.23 1.029-2.354 0.864-0.09 1.84-0.041 2.703-0.002 0.754 0.032 2.127 0.065 2.883 0.065 2.285 0 3.309-0.337 3.317-1.044 0.019-3.145-0.258-6.628-0.254-9.782 0.006-2.972 0.449-5.979 0.316-8.941-0.125-2.721 0.192-4.001-2.724-4.001-0.106 0-1.323 0.009-1.426 0.009-0.233 0-0.414-0.006-0.588-0.009-0.721-0.018-3.781-0.363-4.502-0.374-0.541-0.006-3.139-0.276-4.135-0.256-1.982 0.046-3.992 0.127-5.939 0.205-1.203 0.045-2.438 0.097-3.662 0.139-1.836 0.062-3.457 0.091-4.94 0.091-0.642 0.792-0.584 1.942-0.537 2.955 0.006 0.154 0.02 0.307 0.023 0.451 0.03 0.87-0.066 1.742-0.168 2.587-0.064 0.583-0.134 1.193-0.16 1.79-0.025 0.62-0.052 1.237-0.078 1.852-0.033 0.843-0.07 1.685-0.103 2.523-0.119 2.935-0.225 6.078-0.188 9.167 0.008 0.787 0.031 1.371 0.063 2.236 0.006 0.164 0.025 1.146 0.027 1.159 0.082 0.313 0.217 0.557 0.656 0.588 0.209 0.014 0.812 0.045 1.596 0.081 1.207-0.074 5.109 0.078 5.557 0.103 0.212 0.012 0.701 0.037 0.888-0.083 0.155-0.1 0.151-0.299 0.074-0.434-0.066-0.114-0.199-0.331-0.367-0.423-0.078-0.045-0.232-0.122-0.306-0.146-0.19-0.071-0.391-0.087-0.592-0.072-0.217 0.014-5.869 0.311-6.326-0.249-0.002-0.006-0.16-0.171-0.176-0.265-0.637-3.838-0.215-7.413 0.197-11.149 0.178-1.608 0.365-3.274 0.459-4.913 0.049-0.782 0.035-1.582 0.024-2.351-0.01-0.749-0.014-1.517 0.025-2.272 0.002-0.101 0.002-0.205 0.002-0.322 0.006-0.537 0.01-1.217 0.529-1.514 0.459-0.265 1.024-0.42 1.709-0.488 0.713-0.068 1.467-0.097 2.375-0.097 0.697 0 1.406 0.018 2.094 0.037 0.682 0.019 1.395 0.037 2.092 0.037 0.588 0 1.113-0.016 1.601-0.041 0.516-0.033 12.334 0.293 13.575 0.489 0.021 0.005 0.074 0.009 0.136 0.015 1.239 0.169 1.614 0.296 1.608 0.554-0.022 0.739-0.035 1.514-0.037 2.305-0.028 2.146-0.004 4.333 0.015 6.446 0.008 0.723 0.014 1.441 0.022 2.167 0.009 1.619 0.009 3.053 0 4.394-0.014 0.688-0.028 1.397-0.043 2.18-0.006 0.123 0.002 0.263 0.008 0.408 0.025 0.536 0.06 1.455-0.36 1.818-1.078 0.941-1.75 1.058-2.68 1.058-0.55 0-1.714-0.051-2.265-0.099-0.547-0.048-1.117-0.098-1.668-0.098h-0.074c-0.577 0-2.332-0.212-2.43 0.221-0.137 0.574-0.131 0.922-0.147 1.678-0.083 0.91-0.027 1.348-0.144 2.428-0.063 0.607-0.035 1.302-0.09 2.092-0.045 0.661-0.285 1.528 0.09 1.876 0.506 0.465 2.025 0.087 3.123 0.043 0.766-0.029 8.379 0.102 11.591-0.079 0.462-0.024 1.706 0.168 2.029-0.042 0.745-0.475 0.846-1.841 0.894-3.065m-5.223-30.668c-0.01 0.036-0.045 0.146-0.2 0.164-0.327 0.031-1.369-0.094-1.936-0.105-0.34-0.01-2.494 0.105-4.015 0.105-1.325 0-6.721-0.208-7.266-0.179-0.553 0.029-1.123 0.063-1.686 0.063-1.511 0-3.056-0.107-4.541-0.21-1.072-0.078-2.195-0.157-3.298-0.194-0.69-0.019-1.498-0.033-2.338-0.033-4.098 0-6.504-0.248-7.19 0.413-0.291 0.277-0.414 0.669-0.479 0.978-0.125 0.641-0.162 0.84-0.168 1.453-0.014 0.554-0.014 0.948-0.016 1.341 0 0.579 0 1.083-0.027 1.927-0.057 1.692 0.193 3.417 0.109 5.079-0.084 1.511-0.176 3.079-0.228 4.614-0.08 2.122-0.01 4.26 0.045 6.332 0.035 1.101 0.064 2.239 0.078 3.36 0.006 0.44 0.037 1.131 0.033 1.567-0.002 0.745-0.453 3.526 0.564 4.114 0.454 0.259 3.379 0.319 3.741 0.338 2.357 0.123 3.576 0.101 5.935 0.107 1.065 0.004 2.611-0.11 3.664-0.286 1.217-0.208 1.115-0.403 1.155-1.482 0.013-0.399-0.004-0.723-0.022-1.137-0.01-0.248-0.012-0.686-0.031-1.076h0.004c-0.01-0.099-0.016-0.195-0.026-0.297-0.041-0.484-0.078-1.342-0.295-1.503-0.451-0.335-1.677-0.056-2.611-0.089-0.396-0.017-0.728-0.028-0.928-0.037-0.986-0.056-0.808-0.104-1.416-0.136-0.285-0.015-0.609-0.025-1.066-0.054h-0.203c-0.719 0-1.11-0.046-1.117-0.312-0.012-0.39-0.032-0.781-0.055-1.075-0.041-0.514-0.094-1.037-0.15-1.544-0.02-0.211-0.04-0.425-0.055-0.636-0.131-1.399-0.131-2.81 0-4.311l0.015-0.247c0.127-1.468 0.254-2.973 0.245-4.466-0.016-1.306-0.028-2.652 0.164-3.983 0.068-0.49 0.15-0.837 0.521-0.837 0.086 0 0.172 0.017 0.27 0.032 0.136 0.023 1.359-0.032 1.572-0.032 0.383 0 3.754-0.27 5.404-0.303 0.594-0.013 3.553-0.141 4.334-0.131 0.768 0.008 1.574 0.011 2.363 0.011 0.795 0 1.495-0.003 2.141-0.021 0.746-0.018 1.422-0.043 2.061-0.084 0.103-0.003 0.179-0.014 0.246-0.024 0.08-0.008 0.145-0.019 0.201-0.019 0.351 0 0.371 0.312 0.379 0.606 0.035 0.806 0.09 1.614 0.144 2.396 0.041 0.642 0.084 1.307 0.118 1.958 0.144 2.818 0.179 6.132-0.641 9.366-0.096 0.389-0.293 0.564-0.615 0.564-0.123 0-0.252-0.026-0.389-0.052-0.156-0.023-1.684 0.013-2.271 0.076-0.114 0.019-0.225 0.024-0.342 0.041-0.453 0.044-0.975 0.094-1.494 0.094-0.916 0-1.621-0.15-2.25-0.476-0.954-0.508-0.623-0.858-0.745-2.793-0.005-0.118 0.02-1.064-0.201-1.194-0.267-0.17-0.564-0.292-0.881-0.366-0.211-0.049-0.437-0.076-0.646-0.076-0.277 0-0.66 0.046-0.953 0.26-0.244 0.179-0.469 0.496-0.709 0.838-0.408 0.597-0.869 0.932-1.561 0.932-0.185 0-0.375-0.046-0.566-0.142-1.094-0.53-0.965-2.103-0.883-3.245 0.012-0.118 0.014-0.235 0.024-0.335 0.003-0.028 0.003-0.067 0.003-0.12 0.069-1.631 0.334-2.035 0.569-2.104 0.623-0.175 1.344-0.387 2.152-0.462 0.709-0.066 3.74 0 4.309 0 0.213 0 1.967 0.066 2.179 0.062h0.024c0.189 0 0.336 0.049 0.433 0.148 0.164 0.161 0.069 0.857 0.069 1.624 0 1.04 0.443 1.742 0.959 1.429 0.631-0.381 0.928-2.862 0.32-3.707-0.383-0.536-0.789-0.669-1.107-0.669-0.02 0-0.039 0-0.055 0.003-0.717 0.074-1.42 0.131-2.098 0.169-0.644 0.033-1.349 0.052-2.142 0.052s-1.602-0.019-2.381-0.032l-0.07-0.005c-0.147-0.003-0.368-0.015-0.627-0.039-0.436-0.032-0.979-0.08-1.481-0.08-1.068 0-1.265 0.206-1.295 0.295-0.293 0.742-0.304 1.648-0.308 2.524-0.002 0.321-0.002 0.626-0.024 0.919-0.068 1.29-0.088 2.659 0.289 3.914 0.139 0.456 0.907 1.189 2.434 1.109 0.517-0.028 0.947-0.176 1.133-0.263 0.32-0.15 0.463-0.531 0.615-0.925 0.193-0.509 0.295-0.905 0.963-0.905 0.07 0 0.347 0.075 0.426 0.188 0.32 0.4 0.136 1.598 0.08 1.823-0.157 0.602-0.512 1.107-1.012 1.42-1.76 1.114-6.555 0.93-6.625-1.83-0.004-0.135-0.004-0.251-0.012-0.326-0.054-0.666-0.082-1.362-0.088-2.064-0.007-1.335 0.069-2.759 0.231-4.483 0.058-0.616 0.127-1.249 0.207-1.924 0.066-0.531 0.4-0.611 0.75-0.704 0.06-0.014 0.131-0.031 0.193-0.049 2.106-0.605 4.371-0.657 6.32-0.657 0.262 0 0.524 0.002 0.788 0.002 1.146 0.009 2.31 0.036 3.439 0.069 0.4 0.012 2.367-0.166 2.758 0.189 0.244 0.222 0.408 0.781 0.424 1.192 0.101 2.533 0.435 4.591-0.084 6.169-0.375 1.156-0.864 1.875-2.006 1.875-0.108 0-0.219-0.005-0.34-0.021-0.934-0.104-1.242-1.527-1.434-2.374-0.021-0.116-0.041-0.219-0.062-0.304-0.315-1.237-0.754-2.005-1.988-2.005-0.047 0-0.1 0.003-0.145 0.003-0.217 0.013-0.449 0.014-0.715 0.014-0.267 0-0.545-0.001-0.812-0.01-0.264-0.004-0.539-0.007-0.811-0.007-0.424 0-0.765 0.012-1.09 0.04-1.334 0.117-1.98 0.623-1.984 1.533-0.004 0.111-0.143 1.742 0.367 1.427 0.533-0.33 0.338-1.08 0.766-1.506 0.472-0.472 0.881-0.48 1.449-0.499 0.055-0.002 0.115-0.002 0.178-0.004 0.219-0.013 0.453-0.015 0.679-0.015 0.457 0 0.938 0.017 1.424 0.05h0.237c0.914 0.005 1.394 0.044 1.513 0.258 0.344 0.63 0.366 1.314 0.379 1.977 0.014 0.572 0.02 1.113 0.235 1.613 0.203 0.485 0.722 0.718 1.58 0.718 0.347 0 0.695-0.035 0.974-0.065l0.057-0.005c0.818-0.086 2.33-0.233 2.578-1.206 0.211-0.829 0.164-1.731 0.117-2.592-0.021-0.4-0.041-0.81-0.039-1.211 0.002-0.428 0.039-0.905 0.076-1.406 0.131-1.752 0.282-3.736-0.879-4.89-0.168-0.172-0.431-0.25-0.818-0.25-0.248 0-0.514 0.036-0.771 0.066-0.174 0.023-0.342 0.042-0.502 0.051-0.702 0.04-1.413 0.084-2.114 0.128l-1.103 0.066c-0.93 0.057-1.856 0.111-2.783 0.163-1.614 0.091-3.03 0.154-4.342 0.204-0.744 0.024-1.467 0.046-2.172 0.062-0.34 0.008-0.684 0.019-1.024 0.021-0.058 0.351-0.111 0.688-0.16 1.023-0.427 2.956-0.492 5.95-0.548 8.848-0.01 0.254-0.012 0.54-0.018 0.836-0.018 0.667-0.033 1.362-0.047 1.933-0.016 0.479 0.326 0.731 0.881 0.989 0.975 0.455 2.146 0.49 3.164 0.49 0.478 0 0.965-0.021 1.443-0.046 0.483-0.021 0.979-0.045 1.469-0.045 0.451 0 0.848 0.023 1.223 0.062 0.246 0.028 0.416-0.007 0.334 3.515l-0.002 0.002c-0.01 0.363-0.024 0.74-0.024 1.155-0.019 1.482-0.136 2.821-0.367 4.071-0.848 0.228-2.267 0.352-3.115 0.418-1.705 0.138-3.459-0.008-5.217-0.008-1.547 0-2.957 0.099-4.433-0.133-1.209-0.074-2.747 0.057-3.958 0.054-0.896-0.001-1.689-0.09-2.134-1.038-0.434-0.914-0.438-1.986-0.381-2.956 0.027-0.484 0.017-1.408 0.017-1.408 0.022-2.675 0.018-5.252 0-8.451-0.007-1.512 0.043-3.047 0.088-4.529 0.055-1.647 0.106-3.348 0.086-5.017-0.043-2.37 0.11-3.802 0.312-5.788 0.049-0.455 0.104-0.949 0.154-1.481 0.008-0.113 0.02-0.227 0.031-0.343 0.186-1.996 0.416-4.482 3.035-4.482 0.489 0 0.971 0.043 1.448 0.082 0.461 0.038 2.945 0 3.4 0 0.488 0 11.397 0.808 15.955 0.923 1.113 0.023 6.817-0.005 6.838-0.005 0.248 0 1.125-0.088 1.328-0.088 0.444 0 0.801 0.103 1.149 0.324 0.058 0.039 0.49 0.35 0.89 0.679 0.797 0.652 0.829 0.827 0.806 0.956" fill-rule="evenodd"/><g><path d="m64.3554 14.9927h-1.69739v-6.61377h-2.95532v6.61377h-1.70288v-8.03101h6.35559v8.03101z"/><path d="m72.2098 14.9927-0.582275-1.91162h-2.92786l-0.582276 1.91162h-1.83472l2.83447-8.06397h2.08191l2.84546 8.06397h-1.83472zm-0.98877-3.33984q-0.8075-2.59833-0.9119-2.93891-0.0988-0.34058-0.1428-0.53833-0.1813 0.70313-1.0382 3.47714h2.0929z"/><path d="m83.0744 14.9927h-2.16431l-3.49365-6.07544h-0.04944q0.10437 1.6095 0.10437 2.29614v3.7793h-1.52161v-8.03101h2.14783l3.48816 6.01502h0.03845q-0.0824-1.56555-0.0824-2.21374v-3.80127h1.53259v8.03101z"/><path d="m90.6156 14.9927h-4.62524v-8.03101h4.62524v1.39526h-2.92236v1.76331h2.71912v1.39526h-2.71912v2.07092h2.92236v1.40625z"/><path d="m99.5521 14.9927h-1.69739v-6.61377h-2.95532v6.61377h-1.70288v-8.03101h6.35559v8.03101z"/><path d="m102.49 14.9927v-8.03101h1.70288v8.03101h-1.70288z"/><path d="m106.543 14.9927v-1.34033l2.58728-2.86743-2.52137-2.52136v-1.30188h5.4657v1.39526h-2.406q-0.28015 0-1.24695-0.060425l2.4939 2.47742-2.62024 2.87842q1.31835-0.06592 1.56555-0.06592h2.54333v1.40625h-5.8612z"/><path d="m117.803 14.9927h-1.70289v-6.61377h-2.18078v-1.41724h6.06445v1.41724h-2.18078v6.61377z"/><path d="m128.712 14.9927h-1.69739v-3.46619h-3.18054v3.46619h-1.70288v-8.03101h1.70288v3.14758h3.18054v-3.14758h1.69739v8.03101z"/><path d="m135.045 14.9927-1.93359-6.30066h-0.0494q0.10437 1.92261 0.10437 2.56531v3.73535h-1.52161v-8.03101h2.31812l1.90063 6.14136h0.033l2.01599-6.14136h2.31812v8.03101h-1.58752v-3.80127q0-0.269165 0.005-0.620727 0.011-0.351563 0.0769-1.86768h-0.0494l-2.07092 6.28967h-1.56006z"/><path d="m143.157 14.9927v-8.03101h1.70288v8.03101h-1.70288z"/><path d="m152.709 14.9927-0.58227-1.91162h-2.92786l-0.58227 1.91162h-1.83472l2.83447-8.06397h2.08191l2.84546 8.06397h-1.83472zm-0.98877-3.33984q-0.80749-2.59827-0.91186-2.93884-0.0989-0.340576-0.14282-0.53833-0.18128 0.703125-1.03821 3.47717h2.09289z"/><path d="m162.909 14.9927h-1.93359l-2.10388-3.38379-0.71961 0.516358v2.86743h-1.70288v-8.03101h1.70288v3.67493l0.67017-0.944825 2.17529-2.7301h1.88965l-2.80151 3.55408 2.82348 4.47693z"/><path d="m169.445 14.9927h-4.62525v-8.03101h4.62525v1.39526h-2.92236v1.76331h2.71911v1.39526h-2.71911v2.07092h2.92236v1.40625z"/><path d="m171.443 14.9927v-1.34033l2.58728-2.86743-2.52136-2.52136v-1.30188h5.4657v1.39526h-2.40601q-0.28015 0-1.24694-0.060425l2.49389 2.47742-2.62024 2.87842q1.31836-0.06592 1.56555-0.06592h2.54334v1.40625h-5.86121z"/><path d="m62.6251 26.9177h-4.62524v-8.03101h4.62524v1.39526h-2.92236v1.76331h2.71912v1.39526h-2.71912v2.07092h2.92236v1.40625z"/><path d="m71.856 26.9177h-1.93359l-2.10388-3.38379-0.719604 0.516358v2.86743h-1.70288v-8.03101h1.70288v3.67493l0.670166-0.944824 2.17529-2.7301h1.88965l-2.80151 3.55408 2.82349 4.47693z"/><path d="m73.2591 25.9399 2.43347-7.08618h1.92261l2.41699 7.09717v0.966797h-6.77307v-0.977783zm3.38928-5.69092q-0.01099 0.0824-0.07141 0.324096-0.05493 0.236207-0.164795 0.615235-0.109864 0.379028-1.41724 4.31213h3.30688l-1.38428-4.21875-0.06042-0.214234q-0.197754-0.708618-0.20874-0.818481z"/><path d="m89.7409 22.8912q0 1.99402-0.98877 3.06519-0.988769 1.07117-2.83447 1.07117t-2.83447-1.07117-0.98877-3.07617 0.98877-3.05969q0.994263-1.06018 2.84546-1.06018t2.82898 1.06567q0.983277 1.06567 0.983277 3.06519zm-5.86121 0q0 1.34583 0.510864 2.02698 0.510865 0.681152 1.5271 0.681152 2.03796 0 2.03796-2.70813 0-2.71362-2.02698-2.71362-1.01624 0-1.53259 0.686645-0.516357 0.681153-0.516357 2.02698z"/><path d="m91.9241 26.9177v-1.34033l2.58728-2.86743-2.52136-2.52136v-1.30188h5.4657v1.39526h-2.40601q-0.280151 0-1.24695-0.06042l2.4939 2.47742-2.62024 2.87842q1.31836-0.06592 1.56555-0.06592h2.54334v1.40625h-5.86121z"/><path d="m104.901 26.9177h-4.62524v-8.03101h4.62524v1.39526h-2.92236v1.76331h2.71911v1.39526h-2.71911v2.07092h2.92236v1.40625z"/><path d="m107.672 26.9177v-8.03101h1.70288v8.03101h-1.70288z"/><path d="m111.915 26.9177v-1.34033l2.58728-2.86743-2.52137-2.52136v-1.30188h5.4657v1.39526h-2.406q-0.28016 0-1.24695-0.06042l2.49389 2.47742-2.62024 2.87842q1.31836-0.06592 1.56556-0.06592h2.54333v1.40625h-5.8612z"/><path d="m134.752 26.9177h-1.9336l-2.10388-3.38379-0.7196 0.516358v2.86743h-1.70288v-8.03101h1.70288v3.67493l0.67016-0.944824 2.1753-2.7301h1.88964l-2.80151 3.55408 2.82349 4.47693z"/><path d="m138.556 22.666h0.56031q0.78552 0 1.17553-0.307617 0.39002-0.31311 0.39002-0.906372 0-0.598755-0.32959-0.8844-0.3241-0.285644-1.02173-0.285644h-0.77454v2.38403zm3.84522-1.27441q0 1.29639-0.81299 1.98303-0.80749 0.686645-2.30164 0.686645h-0.73059v2.85645h-1.70288v-8.03101h2.56531q1.46118 0 2.21924 0.631714 0.76355 0.626221 0.76355 1.87317z"/><path d="m151.599 26.9177h-1.69738v-3.46619h-3.18055v3.46619h-1.70288v-8.03101h1.70288v3.14758h3.18055v-3.14758h1.69738v8.03101z"/><path d="m157.819 26.9177h-1.70288v-6.61377h-2.18078v-1.41724h6.06445v1.41724h-2.18079v6.61377z"/><path d="m168.918 26.9177h-1.69738v-3.46619h-3.18055v3.46619h-1.70288v-8.03101h1.70288v3.14758h3.18055v-3.14758h1.69738v8.03101z"/><path d="m171.458 26.9177v-1.34033l2.58728-2.86743-2.52136-2.52136v-1.30188h5.4657v1.39526h-2.40601q-0.28015 0-1.24695-0.06042l2.4939 2.47742-2.62024 2.87842q1.31836-0.06592 1.56555-0.06592h2.54334v1.40625h-5.86121z"/></g><g><path d="m57.9998 41.1036v-4.90784h1.04065v4.90784h-1.04065z"/><path d="m59.8062 40.5061 1.48712-4.33045h1.17493l1.47705 4.33716v0.590821h-4.1391v-0.597534zm2.07123-3.47778q-0.0067 0.05035-0.04364 0.198059-0.03357 0.144348-0.100708 0.375976-0.06714 0.231629-0.866089 2.63519h2.02087l-0.845947-2.57813-0.03693-0.13092q-0.12085-0.433045-0.127564-0.500183z"/><path d="m65.7483 38.5053h0.342407q0.480041 0 0.718384-0.187989 0.238342-0.191345 0.238342-0.553894 0-0.365906-0.201416-0.540466-0.198059-0.174561-0.62439-0.174561h-0.473327v1.45691zm2.34985-0.778809q0 0.792236-0.496827 1.21185-0.493469 0.419617-1.40656 0.419617h-0.446472v1.74561h-1.04065v-4.90784h1.56769q0.892945 0 1.3562 0.386047 0.466614 0.382691 0.466614 1.14472z"/><path d="m70.5088 38.2167 1.02386-2.02087h1.12122l-1.62811 2.99774v1.9101h-1.03394v-1.87653l-1.62811-3.03131h1.12793l1.01715 2.02087z"/><path d="m75.3062 41.1036-1.18164-3.8504h-0.03021q0.06378 1.17493 0.06378 1.56769v2.28272h-0.929871v-4.90784h1.41663l1.1615 3.75305h0.02014l1.232-3.75305h1.41663v4.90784h-0.970154v-2.323q0-0.16449 0.0034-0.379333 0.0067-0.214844 0.047-1.14136h-0.03021l-1.26556 3.84369h-0.95337z"/><path d="m82.6684 41.1036-0.355835-1.16821h-1.78925l-0.355835 1.16821h-1.12122l1.73218-4.92798h1.27228l1.73889 4.92798h-1.12122zm-0.6043-2.041q-0.493469-1.58783-0.557251-1.79596-0.06042-0.20813-0.08728-0.32898-0.110779 0.429688-0.634461 2.12494h1.27899z"/><path d="m89.719 41.1036h-1.04065v-4.04175h-1.3327v-0.866089h3.70606v0.866089h-1.3327v4.04175z"/><path d="m94.5902 41.1036h-2.82654v-4.90784h2.82654v0.852661h-1.78589v1.07758h1.66168v0.852661h-1.66168v1.26556h1.78589v0.859375z"/><path d="m99.5354 41.1036h-1.18836l-1.14136-1.85638-1.14136 1.85638h-1.1145l1.62811-2.53113-1.52405-2.37671h1.14807l1.05744 1.76575 1.03729-1.76575h1.12122l-1.54083 2.43378 1.65833 2.47406z"/><path d="m104.464 41.1036h-1.32263l-2.13501-3.71277h-0.0302q0.0638 0.983582 0.0638 1.4032v2.30957h-0.92987v-4.90784h1.31256l2.13165 3.67584h0.0235q-0.0504-0.956726-0.0504-1.35284v-2.323h0.93658v4.90784z"/><path d="m110.1 38.643q0 1.21857-0.60425 1.87317-0.60425 0.654602-1.73218 0.654602t-1.73218-0.654602-0.60425-1.87988 0.60425-1.86981q0.60761-0.647889 1.73889-0.647889 1.13129 0 1.72883 0.651246 0.60089 0.651245 0.60089 1.87317zm-3.58185 0q0 0.822449 0.31219 1.23871 0.3122 0.41626 0.93323 0.41626 1.24542 0 1.24542-1.65497 0-1.65833-1.23871-1.65833-0.62103 0-0.93658 0.419617-0.31555 0.41626-0.31555 1.23871z"/><path d="m112.692 37.0686q-0.0403 0.20813-0.12756 0.580749-0.0839 0.37262-0.12756 0.510254l-0.92987 2.94403h-1.05072l1.66503-4.90784h1.13465l1.66839 4.90784h-1.05072l-0.91644-2.95074q-0.0336-0.09735-0.13428-0.500184-0.1007-0.402832-0.13092-0.584106z"/><path d="m119.95 38.643q0 1.21857-0.60425 1.87317-0.60425 0.654602-1.73218 0.654602t-1.73217-0.654602q-0.60425-0.654602-0.60425-1.87988t0.60425-1.86981q0.6076-0.647889 1.73889-0.647889 1.13128 0 1.72882 0.651246 0.60089 0.651245 0.60089 1.87317zm-3.58185 0q0 0.822449 0.3122 1.23871 0.31219 0.41626 0.93322 0.41626 1.24543 0 1.24543-1.65497 0-1.65833-1.23871-1.65833-0.62104 0-0.93659 0.419617-0.31555 0.41626-0.31555 1.23871z"/><path d="m124.026 36.1958v0.859375h-2.06116v4.04846h-1.04065v-4.90784h3.10181z"/><path d="m124.728 41.1036v-4.90784h1.04065v4.90784h-1.04065z"/><path d="m129.965 41.1036-0.35583-1.16821h-1.78925l-0.35584 1.16821h-1.12121l1.73218-4.92798h1.27227l1.7389 4.92798h-1.12122zm-0.60425-2.04102q-0.49347-1.58783-0.55725-1.79596-0.0604-0.20813-0.0873-0.32898-0.11078 0.429688-0.63446 2.12494h1.27899z"/><path d="m131.295 41.1036v-0.819092l1.58111-1.75232-1.54083-1.54083v-0.795593h3.34015v0.852661h-1.47034q-0.1712 0-0.76202-0.03693l1.52405 1.51398-1.60126 1.75903q0.80566-0.04028 0.95672-0.04028h1.55426v0.859375h-3.58184z"/><path d="m143.693 41.1036h-1.26556l-0.38605-0.379334q-0.64118 0.446472-1.4502 0.446472-0.81909 0-1.29913-0.375976-0.48004-0.375977-0.48004-1.01715 0-0.4599 0.20141-0.782166 0.20478-0.325623 0.69825-0.607605-0.25177-0.288696-0.36591-0.550537-0.11413-0.265198-0.11413-0.577393 0-0.510254 0.3894-0.822449 0.39276-0.312195 1.04736-0.312195 0.62439 0 0.99701 0.292054 0.37598 0.288696 0.37598 0.775451 0 0.399476-0.23163 0.731812-0.23163 0.32898-0.7486 0.627747l0.95337 0.929871q0.23835-0.392762 0.41291-1.01044h1.0675q-0.12085 0.453186-0.33233 0.886231-0.21149 0.429688-0.48005 0.762024l1.01044 0.983582zm-3.80341-1.42334q0 0.288696 0.21485 0.4599 0.2182 0.171203 0.55725 0.171203 0.42297 0 0.76202-0.204773l-1.1145-1.10779q-0.1947 0.147705-0.30884 0.308838-0.11078 0.161133-0.11078 0.37262zm1.20514-2.38007q0-0.177917-0.12085-0.278625-0.12085-0.104065-0.31219-0.104065-0.22492 0-0.35584 0.107422-0.12756 0.107422-0.12756 0.305481 0 0.29541 0.31891 0.651245 0.2887-0.161133 0.44311-0.315552 0.15442-0.157776 0.15442-0.365906z"/><path d="m150.559 41.1036h-2.82654v-4.90784h2.82654v0.852661h-1.78589v1.07758h1.66168v0.852661h-1.66168v1.26556h1.78589v0.859375z"/><path d="m152.577 38.5053h0.34241q0.48004 0 0.71838-0.187989 0.23834-0.191345 0.23834-0.553894 0-0.365906-0.20141-0.540466-0.19806-0.174561-0.62439-0.174561h-0.47333v1.45691zm2.34985-0.778809q0 0.792236-0.49682 1.21185-0.49347 0.419617-1.40656 0.419617h-0.44647v1.74561h-1.04065v-4.90784h1.56769q0.89294 0 1.3562 0.386047 0.46661 0.382691 0.46661 1.14472z"/><path d="m158.636 41.1036h-2.82654v-4.90784h2.82654v0.852661h-1.78589v1.07758h1.66169v0.852661h-1.66169v1.26556h1.78589v0.859375z"/><path d="m161.141 38.2167 1.02386-2.02087h1.12122l-1.62812 2.99774v1.9101h-1.03393v-1.87653l-1.62812-3.03131h1.12793l1.01716 2.02087z"/><path d="m168.215 41.1036h-1.32263l-2.13501-3.71277h-0.0302q0.0638 0.983582 0.0638 1.4032v2.30957h-0.92987v-4.90784h1.31256l2.13165 3.67584h0.0235q-0.0503-0.956726-0.0503-1.35284v-2.323h0.93658v4.90784z"/><path d="m172.401 41.1036-0.35584-1.16821h-1.78924l-0.35584 1.16821h-1.12121l1.73217-4.92798h1.27228l1.73889 4.92798h-1.12121zm-0.60425-2.04102q-0.49347-1.58783-0.55725-1.79596-0.0604-0.20813-0.0873-0.32898-0.11078 0.429688-0.63446 2.12494h1.27899z"/><path d="m173.731 41.1036v-0.819092l1.58112-1.75232-1.54083-1.54083v-0.795593h3.34015v0.852661h-1.47034q-0.1712 0-0.76202-0.03693l1.52404 1.51398-1.60125 1.75903q0.80566-0.04028 0.95672-0.04028h1.55426v0.859375h-3.58185z"/></g></svg>
