<?xml version="1.0" encoding="UTF-8" standalone="no"?>
<svg xmlns:rdf="http://www.w3.org/1999/02/22-rdf-syntax-ns#" xmlns="http://www.w3.org/2000/svg" height="39.1738" width="113.504" version="1.1" xmlns:cc="http://creativecommons.org/ns#" xmlns:dc="http://purl.org/dc/elements/1.1/" viewBox="0 0 113.50414 39.17381">
 <g fill-rule="evenodd" transform="translate(-183.248 -704.204)">
  <path d="m193.54 713.883c-2.58232 2.18014-4.97414 7.00611-5.1223 10.0118 0 0.74083-0.16933 1.41817-0.16933 2.9633 0.0423 2.8575 0.27516 4.06398 1.16415 6.09598 1.10066 2.8363 4.06398 4.1063 6.34996 4.69888 4.1698 1.05834 8.10677 0.78317 12.2131 0.27517 0.80433-0.0212 3.6618-0.59258 6.62511-2.98442 0.10583-0.0847 0.27516-0.21166 0.46566-0.3175 0.23284-0.1905 0.23284-0.21166 0.23284-0.3175-0.0212-0.21166-0.21167-0.3598-0.42334-0.4233-0.27516-0.0847-0.27516-0.10583-0.48683 0.0212-1.58747 1.3123-3.49247 2.30714-5.39744 2.62464-2.05317 0.33866-2.921 0.635-5.54564 0.635-3.38664 0.0635-8.00094-0.35984-10.3928-2.20134-1.94733-1.5028-2.96332-3.93697-3.17498-6.73094-0.14817-1.54517-0.10584-2.79397 0.10583-4.08514 0.69849-4.44497 2.07432-6.49811 5.56679-9.92708 6.98494-5.73614 14.245-4.14865 18.6689-1.3335 3.87341 2.75164 4.19091 5.4398 4.23325 7.26011-0.0847 3.49247-0.9525 5.07997-2.01075 6.85794-0.78317 1.18533-1.56634 2.13783-2.4765 2.9845-0.42334 0.40214-1.16414 0.99481-1.33347 1.05831-0.0423 0-0.1905 0.0847-0.508 0.1905-0.6985 0.3175-1.22767 0-1.79917-0.42334-0.23283-0.254-0.4445-0.71964-0.48683-1.0583-0.0423-0.3175-0.14817-0.61384-0.14817-0.889-0.0635-0.78317 0.0423-1.524 0.10583-2.286 0.0423-0.42331 0.0847-0.78314 0.0847-1.20647 0.0212-0.27517 0.0635-0.889 0.10584-1.3335 0-0.42334 0.0635-0.8255 0.0635-0.9525 0.0423-0.29634 0.0635-0.93131 0.16933-1.10064 0.254-0.80434 1.37583-4.59314 2.11667-6.62514 0.3175-0.93131-0.52917-0.99481-1.12184-0.88897-0.14816 0.0423-0.16933 0.0635-0.21166 0.21166-0.10584 0.38098-0.14817 0.42331-0.21167 0.84664-0.27517 1.22767-0.48683 1.9685-0.91017 3.28081-0.42333 1.22766-1.03714 2.32833-1.52397 3.4925-0.48683 0.9948-0.99483 2.15897-1.22767 2.81514-0.3175 0.78316-0.635 1.5663-1.67216 2.53997-1.29114 1.143-3.61947 3.00564-3.76764 0.29633-0.0423-0.42333 0-1.77797 0.10583-2.09547 0.10584-0.65617 0.21167-0.9525 0.3175-1.48167 0.59267-2.60347 1.69334-5.20697 2.68817-7.53527 0.16933-0.46567 0.10583-1.05834-0.10583-1.524-0.29634-0.52914-0.889-0.381-0.889 0.254-0.74084 2.39183-1.69334 4.25447-2.85748 6.37113-0.27516 0.5715-0.35983 0.67731-0.46566 0.88898-0.27517 0.48683-0.48684 0.74083-0.65617 1.05833-0.0423 0.10583-0.10583 0.254-0.1905 0.35983-0.74083 1.22767-1.397 2.43414-2.45531 3.49247-0.46566 0.52917-0.889 0.762-1.37583 1.12184-0.40217 0.27516-0.74083 0.48683-1.143 0.67733-2.22247 0.91014-1.39697-0.508-1.16414-1.94733 0.35984-1.75681 1.84147-3.49247 2.05314-5.33395-0.0635-0.16933-1.05833-0.6985-1.2065-0.65616-0.16933 0.0212-0.21167 0.27516-0.16933 0.59266-0.31747 1.31231-0.88897 2.37064-1.41814 3.66181-0.23283 0.6138-0.48683 1.3123-0.59267 1.8838-0.0423 0.16934-0.10583 0.4445-0.14816 0.59267-0.127 0.74083-0.16934 1.3335 0.0847 2.05314 0.762 1.82033 3.17498 0.381 4.23331-0.35981 0.42333-0.27516 0.91017-0.74083 1.37583-1.22766 0.48681-0.61384 1.05831-1.27 1.37581-1.778 0.48683-0.69847 0.91016-1.50281 1.29116-2.24364 0.0847-0.14817 0.254-0.40217 0.3175-0.5715 0.10584-0.16933 0.21167-0.35983 0.254-0.35983 0.0635-0.0212 0.10584 0.14816 0.0423 0.254-0.42333 1.27-0.635 2.68813-0.61383 3.80997 0.0423 0.35983 0.0423 0.67733 0.0423 0.74083 0.0635 0.84667 0.21167 1.69331 0.99483 2.11664 0.63497 0.27517 1.33347 0.16933 1.82031 0.10583 0.67733-0.16933 1.41816-0.59266 2.01083-0.9948 1.35464-1.016 2.32831-3.175 2.94214-4.55081 0.0635-0.23283 0.16933-0.381 0.21167-0.59266 0.0635-0.14817 0.16933-0.10584 0.16933 0.0423-0.0635 1.18533-0.3175 2.53997-0.3175 3.9158 0.0423 0.381 0 0.635 0.14817 1.0795 1.1853 3.47131 4.25447 2.89981 5.84194 1.62981 1.48167-1.2065 2.32825-2.07431 3.28075-3.53481 2.30716-4.0428 2.32833-6.68861 2.01083-9.31325-0.59267-2.56116-1.3335-3.556-2.6035-4.9318-1.43924-1.62982-3.42891-2.81515-5.46088-3.53481-2.43414-0.86783-6.45578-1.01599-7.72578-0.80433-4.27564 0.52916-6.07477 1.20649-10.2022 4.59314z" fill="#b82669"/>
  <g fill="#4bb4fb">
   <path d="m255.409 716.486c0.0423 0.0635 0.0423 0.14817-0.0212 0.21167-0.78316 0.74083-1.48166 1.62983-2.0955 2.5823-0.59266 0.91017-1.12183 1.905-1.50283 2.87867-0.42333 0.99481-0.74083 1.98964-0.9525 2.96331-0.21167 0.99483-0.3175 1.8838-0.3175 2.68813 0 0.84667 0.10583 1.48167 0.3175 1.9685 0.21167 0.46564 0.4445 0.67731 0.80433 0.67731 0.3175 0 0.59267-0.10583 0.889-0.35981 0.3175-0.21166 0.55034-0.52916 0.84667-0.9525 0.0635-0.0212 0.10583-0.0212 0.127 0 0.0847 0.0423 0.10583 0.0847 0.0847 0.14817-0.14817 0.27517-0.35983 0.52917-0.5715 0.80433-0.21167 0.25398-0.46567 0.46564-0.6985 0.67731-0.254 0.21167-0.508 0.381-0.78317 0.52917-0.254 0.10583-0.48683 0.16933-0.74083 0.16933-0.5715 0-1.016-0.27517-1.27-0.762-0.27517-0.52917-0.42333-1.24881-0.42333-2.11664 0-0.71967 0.0635-1.524 0.254-2.41297 0.16933-0.86783 0.42333-1.79917 0.74083-2.70933 0.33867-0.91017 0.74083-1.84148 1.18533-2.68814 0.508-0.86784 1.03717-1.69334 1.62984-2.39181-0.9525 0.67731-1.86267 1.52397-2.8575 2.47647-0.99484 0.97367-1.94734 2.01081-2.8575 3.13264-0.91017 1.05834-1.75684 2.18017-2.58205 3.38664-0.762 1.16417-1.43934 2.286-1.92617 3.38664-0.0423 0.0635-0.10583 0.14817-0.21167 0.254-0.0847 0.0635-0.1905 0.127-0.3175 0.21167-0.10583 0.0635-0.254 0.127-0.35983 0.16933-0.14817 0.0423-0.254 0.0635-0.3175 0.0635-0.14817 0-0.16933-0.0635-0.14817-0.16933 0.29634-2.37064 0.71967-4.48731 1.24884-6.34995 0.55033-1.86266 1.18533-3.55597 1.92616-5.14347-1.22766 1.82033-2.43416 3.51364-3.6195 4.97414-1.16416 1.43933-2.37066 2.6458-3.57716 3.6618-1.16417 0.9525-2.3495 1.73564-3.59834 2.26481-1.22766 0.48683-2.49766 0.762-3.81 0.762-1.43933 0-2.54-0.33867-3.34433-1.0795-0.74083-0.71964-1.12183-1.67214-1.12183-2.85747 0-0.78317 0.21166-1.48164 0.65616-2.09547 0.42334-0.635 1.05834-1.0795 1.8415-1.37584 0.0635-0.0212 0.10584-0.0212 0.10584 0.0423 0.0423 0.0635 0.0423 0.10584 0 0.14817-0.46567 0.3175-0.80434 0.65617-1.016 1.0795-0.1905 0.40217-0.254 0.93133-0.254 1.5663 0 0.48684 0.0635 0.97367 0.254 1.43934 0.127 0.46566 0.42333 0.84666 0.74083 1.2065 0.3175 0.3175 0.6985 0.59266 1.18533 0.8043 0.508 0.16934 1.10067 0.27517 1.73567 0.27517 1.3335 0 2.6035-0.27517 3.81-0.91014 1.22767-0.59267 2.43417-1.43933 3.556-2.49767 1.2065-1.10063 2.32833-2.3283 3.429-3.7888 1.12183-1.43931 2.26483-2.98447 3.34433-4.65664-1.0795-0.38097-2.2225-0.65614-3.38666-0.91014-1.16417-0.27516-2.286-0.381-3.38667-0.381-1.27 0-2.2225 0.33867-2.87867 1.05834-0.67733 0.65613-1.10066 1.60863-1.24883 2.7728-0.0212 0.10583-0.0635 0.14817-0.127 0.10583-0.0423 0-0.0847-0.0635-0.10583-0.127 0.16933-1.524 0.74083-2.68813 1.651-3.4713 0.9525-0.80433 2.18016-1.18533 3.66183-1.18533 0.635 0 1.27 0.0212 1.98967 0.127 0.65616 0.0847 1.3335 0.1905 2.01083 0.3175 0.65617 0.14816 1.3335 0.29633 1.92617 0.46566 0.61355 0.14817 1.14271 0.27517 1.58721 0.46567 0.0847-0.0423 0.14817-0.0423 0.254-0.0847 0.0423 0 0.10584 0.0423 0.10584 0.10584v0.1905c-0.254 0.10583-0.42334 0.27516-0.5715 0.48683-0.127 0.21164-0.27517 0.46564-0.4445 0.7408-0.78289 1.5875-1.37555 3.21731-1.84122 4.86831-0.46567 1.69333-0.84667 3.38664-1.12183 5.1223 0.6985-1.31233 1.54516-2.58233 2.49766-3.8523 0.95222-1.27 1.96822-2.49767 3.06889-3.66181 1.10066-1.143 2.2225-2.20133 3.38666-3.175 1.16417-0.95247 2.286-1.77797 3.38667-2.41297 0.0635 0 0.14817 0.0423 0.16933 0.14817z"/>
   <path d="m260.849 730.033c0.0423 0.0423 0.0635 0.0635 0.0423 0.14814-0.29634 0.381-0.5715 0.6985-0.93134 0.9525-0.33866 0.23284-0.65616 0.33867-0.97366 0.33867s-0.5715-0.23283-0.67734-0.74083c-0.10583-0.48684-0.0423-1.07948 0.14817-1.79914-0.40217 0.67733-0.84667 1.2488-1.35467 1.6933-0.48683 0.46567-0.97366 0.74084-1.50283 0.84667-0.40217 0-0.67733-0.16933-0.84667-0.52917-0.21166-0.3175-0.3175-0.6985-0.3175-1.16414 0-0.48683 0.127-0.97366 0.33867-1.48166 0.254-0.52917 0.61383-0.97367 0.99483-1.37584 0.42334-0.381 0.889-0.69847 1.3335-0.95247 0.52917-0.27516 1.03717-0.381 1.56634-0.381 0.52916 0 0.9525 0.10584 1.27 0.381 0.127-0.10583 0.3175-0.21166 0.55033-0.27516 0.254-0.0635 0.46567-0.10584 0.635-0.10584 0.0847 0 0.10583 0.0423 0.10583 0.10584-0.33866 0.42333-0.65616 0.91013-0.91016 1.4393-0.254 0.508-0.46567 0.99483-0.59267 1.4605-0.14817 0.4445-0.21167 0.86783-0.254 1.22767-0.0423 0.38097 0 0.63497 0.10583 0.78314 0.0635 0.10583 0.21167 0.127 0.381 0.10583 0.1905-0.0847 0.42334-0.29633 0.74084-0.67731 0.0423-0.0423 0.0847-0.0423 0.14816 0zm-3.8735 0.25398c0.27516-0.25398 0.55033-0.52914 0.84666-0.93131 0.3175-0.381 0.55034-0.80433 0.84667-1.29117 0.3175-0.46566 0.55033-0.9525 0.762-1.4605-0.0635-0.21166-0.21167-0.33863-0.4445-0.4868-0.21167-0.10583-0.46567-0.16933-0.74083-0.16933-0.35984 0-0.67734 0.10583-0.99484 0.27516-0.3175 0.16931-0.59266 0.42331-0.80433 0.74081-0.21167 0.27516-0.40217 0.67733-0.52917 1.12183-0.14816 0.42333-0.1905 0.93133-0.1905 1.41817 0 0.35983 0.0423 0.635 0.14817 0.8043 0.14817 0.21167 0.27517 0.3175 0.42333 0.3175 0.16934 0 0.42334-0.127 0.67734-0.33866z"/>
   <path d="m266.458 725.842c-0.0423 0.0212-0.10583 0.0635-0.21166 0.10584-0.254 0-0.48684 0-0.80434 0.0212-0.29633 0-0.61383 0.0423-0.9525 0.0847-0.3175 0.7408-0.5715 1.48163-0.74083 2.18013-0.21167 0.6985-0.3175 1.31234-0.3175 1.73567 0 0.52914 0.21167 0.80431 0.59267 0.80431s0.84666-0.35984 1.3335-1.05831c0.0423-0.0423 0.0847-0.0423 0.10583 0 0.0847 0.0423 0.0847 0.0635 0.0847 0.16933-0.29633 0.42331-0.61383 0.82548-1.03716 1.14298-0.381 0.3175-0.762 0.4445-1.16417 0.4445-0.381 0-0.6985-0.10584-0.86783-0.27517-0.21167-0.21167-0.29634-0.46567-0.29634-0.80433 0-0.46564 0.10584-1.05831 0.3175-1.84148 0.21167-0.78316 0.508-1.5875 0.8255-2.3918-0.40216 0.0212-0.74083 0.10583-1.10066 0.16933-0.0635 0-0.10584-0.0423-0.0635-0.10583 0.0212-0.0635 0.10583-0.14817 0.21166-0.16933 0.10584-0.0847 0.21167-0.14817 0.33867-0.1905 0.14817-0.0635 0.29633-0.10584 0.42333-0.10584h0.1905c0.0635 0 0.10584 0 0.16934-0.0212 0.21166-0.42333 0.42333-0.889 0.635-1.27 0.21166-0.42333 0.42333-0.8255 0.635-1.143 0.10583-0.10583 0.21166-0.21167 0.35983-0.27517 0.16933-0.10583 0.33867-0.16933 0.48683-0.21166 0.16934-0.0423 0.27517-0.0635 0.381-0.0635 0.10584-0.0423 0.14817 0 0.14817 0.0635-0.27517 0.381-0.52917 0.84666-0.80433 1.3335-0.254 0.508-0.46567 0.99483-0.71967 1.56633 0.29633-0.0423 0.5715-0.0423 0.889-0.0423h0.84667c0.0635 0.0423 0.10583 0.0635 0.10583 0.14817z"/>
   <path d="m268.469 724.106c0.91016-2.11664 1.86266-3.91581 2.89983-5.39745 0.97367-1.48166 2.01083-2.64583 2.9845-3.429 1.03717-0.8043 2.01083-1.22764 2.94217-1.22764 0.381 0 0.65616 0.10584 0.91016 0.27517 0.21167 0.1905 0.35984 0.40217 0.46567 0.63497 0.0635 0.254 0.10583 0.52917 0.0212 0.8255-0.0635 0.27517-0.16933 0.55034-0.33866 0.762-0.0423 0.0847-0.0847 0.0847-0.14817 0.0847-0.0423-0.0423-0.0635-0.0847-0.0635-0.14817 0.10583-0.3175 0-0.59266-0.254-0.84666-0.254-0.27517-0.635-0.42334-1.16417-0.42334-0.84666 0-1.62983 0.21167-2.37066 0.67734-0.74084 0.42333-1.48167 1.16416-2.18017 2.2225-0.6985 1.01597-1.41817 2.3918-2.07433 4.12747-0.67734 1.6933-1.35467 3.80997-2.0955 6.37111 0.254-0.42334 0.508-0.80434 0.8255-1.16417 0.27516-0.381 0.635-0.6985 0.97366-0.97367 0.35984-0.2963 0.74084-0.50797 1.143-0.63497 0.381-0.1905 0.80434-0.254 1.22767-0.254 0.16933 0 0.3175 0.0423 0.381 0.14817 0.10583 0.0635 0.14817 0.16933 0.14817 0.3175 0 0.16933-0.0635 0.4233-0.21167 0.65614-0.3175 0.5715-0.5715 1.143-0.78317 1.73566-0.21166 0.59267-0.27517 1.16417-0.27517 1.651 0 0.21164 0 0.40214 0.0423 0.52914 0.0635 0.14817 0.127 0.21167 0.27516 0.21167 0.14817 0 0.3175-0.10583 0.48684-0.23283 0.1905-0.1905 0.35983-0.35984 0.46566-0.57148 0.0423-0.0423 0.10584 0 0.14817 0.0423 0.0212 0.0212 0.0635 0.0635 0.0212 0.10581-0.16933 0.33867-0.4445 0.635-0.84667 0.91017-0.33866 0.254-0.65616 0.381-0.9525 0.381-0.27516 0-0.48683-0.0635-0.65616-0.21167-0.14817-0.127-0.254-0.381-0.254-0.762 0-0.254 0.0423-0.57147 0.0635-0.84664 0.0847-0.35983 0.14816-0.635 0.21166-0.9525 0.10584-0.3175 0.1905-0.61383 0.3175-0.93133 0.10584-0.27517 0.254-0.55034 0.40217-0.80434 0.0635-0.16933 0.10583-0.3175 0.10583-0.381 0-0.14816-0.0847-0.21166-0.254-0.21166-0.27516 0-0.59266 0.10583-0.91016 0.33866-0.35984 0.21167-0.67734 0.52917-1.03717 0.9525-0.3175 0.40217-0.635 0.84667-0.91017 1.4605-0.3175 0.55034-0.5715 1.18531-0.78316 1.86264-0.0212 0.10584-0.127 0.21167-0.33867 0.3175-0.21167 0.10584-0.46567 0.16934-0.74083 0.16934-0.14817 0-0.21167-0.0635-0.1905-0.21167 0.71966-2.64581 1.48166-4.99528 2.37066-7.15428z"/>
   <path d="m275.031 728.509c-0.0423 0.14817-0.0423 0.3175-0.0635 0.46567v0.48683c0 0.40217 0.10584 0.71964 0.27517 0.93131s0.48683 0.3175 0.889 0.3175c0.27517 0 0.59267-0.0847 0.91017-0.254 0.27516-0.16933 0.52916-0.38097 0.74083-0.63497 0.0423-0.0423 0.0635-0.0423 0.10583 0.0423 0.0423 0.0212 0.0423 0.10583 0.0423 0.16933-0.3175 0.38097-0.71966 0.74081-1.16416 1.01597-0.46567 0.29634-0.99484 0.42334-1.524 0.42334-0.52917 0-0.91017-0.127-1.16417-0.381-0.254-0.27517-0.35983-0.67734-0.35983-1.16414 0-0.46567 0.10583-0.9525 0.29633-1.48167 0.21167-0.52917 0.4445-0.99483 0.762-1.41817 0.3175-0.42333 0.71967-0.76197 1.10067-1.0583 0.42333-0.23283 0.80433-0.381 1.22766-0.381 0.42334 0 0.74084 0.10583 0.99484 0.35983 0.27516 0.23284 0.381 0.48681 0.381 0.76197 0 0.889-1.16417 1.48167-3.45017 1.79917zm0.52917-1.82033c-0.254 0.3175-0.381 0.84667-0.48683 1.50283 0.74083-0.0635 1.27-0.21166 1.60866-0.42333 0.35984-0.21167 0.52917-0.4445 0.52917-0.762 0-0.21167-0.0212-0.42333-0.16933-0.5715-0.14817-0.1693-0.35984-0.25397-0.52917-0.25397-0.381 0-0.67733 0.14817-0.9525 0.50797z"/>
   <path d="m282.862 725.736c0.21167 0.0635 0.3175 0.21167 0.3175 0.3175 0 0.16933-0.0423 0.38097-0.14817 0.59264-0.0635 0.21166-0.127 0.381-0.21166 0.52916-0.0212 0.0423-0.0635 0.0423-0.10584 0-0.0635-0.0423-0.0635-0.0635-0.0635-0.10583 0.0423-0.14817 0.0635-0.27517 0.0635-0.46567 0-0.23283-0.0635-0.4233-0.21166-0.5503-0.10584-0.10583-0.23284-0.1905-0.4445-0.1905-0.254 0-0.46567 0.0847-0.635 0.254-0.1905 0.14817-0.254 0.3598-0.254 0.6773 0 0.23284 0.0635 0.4445 0.21166 0.6985 0.14817 0.21167 0.254 0.42334 0.42334 0.67734 0.16933 0.21166 0.3175 0.4445 0.46566 0.6985 0.127 0.254 0.21167 0.52916 0.21167 0.84666 0 0.57148-0.21167 0.99481-0.67733 1.31231-0.46567 0.3175-1.016 0.4445-1.75684 0.4445-0.52916 0-0.93133-0.0635-1.24883-0.23283-0.27517-0.1905-0.42333-0.35984-0.42333-0.5715 0-0.0635 0-0.14817 0.0847-0.254 0.0212-0.10584 0.10583-0.21167 0.16933-0.33864 0.0635-0.14817 0.14817-0.254 0.254-0.35984 0.10583-0.14816 0.16933-0.254 0.27517-0.3175 0.0635-0.0423 0.10583-0.0423 0.14816 0.0423 0.0212 0.0212 0.0212 0.0635 0 0.127-0.0847 0.0847-0.14816 0.1905-0.21166 0.29634-0.0423 0.10583-0.0423 0.21166-0.0423 0.38097 0 0.27517 0.0635 0.52917 0.254 0.6985 0.21166 0.1905 0.42333 0.254 0.74083 0.254 0.381 0 0.6985-0.10583 0.91017-0.3175 0.21166-0.254 0.35983-0.52917 0.35983-0.84664 0-0.27517-0.0847-0.5715-0.21167-0.78317-0.14816-0.27516-0.29633-0.52916-0.42333-0.74083-0.1905-0.23283-0.3175-0.48683-0.42333-0.74083-0.14817-0.23284-0.21167-0.52917-0.21167-0.762 0-0.42334 0.16933-0.74081 0.52917-1.03714 0.3175-0.23283 0.80433-0.381 1.48166-0.381 0.33867 0 0.59267 0.0423 0.80434 0.14817z"/>
   <path d="m286.714 724.593-0.10583-0.21167c-0.0423-0.0635-0.0423-0.16933-0.0423-0.27516 0-0.10584 0-0.16934 0.0635-0.254 0.14817-0.21167 0.40217-0.48684 0.74083-0.80434 0.3175-0.35983 0.67734-0.63497 1.03717-0.88897 0.0212 0 0.0635 0 0.10583 0.0847 0.0212 0.0212 0.0635 0.0635 0.0212 0.0635-0.3175 0.31747-0.59267 0.67731-0.91017 1.10064-0.27516 0.381-0.52916 0.762-0.74083 1.18533-0.0423 0.0423-0.10583 0.0423-0.16933 0zm-2.413 2.5823c-0.0212-0.0635-0.0635-0.10583-0.0212-0.16933 0.55034-0.46567 1.37584-0.95247 2.3495-1.41814 0.14817 0 0.21167 0.0635 0.21167 0.21167-0.21167 0.3175-0.42333 0.7408-0.59267 1.1218-0.21166 0.42334-0.381 0.84667-0.52916 1.27-0.14817 0.40217-0.254 0.78317-0.35984 1.16417-0.0635 0.35983-0.127 0.67733-0.127 0.93131 0 0.3175 0.10584 0.4445 0.33867 0.4445 0.14817 0 0.3175-0.0635 0.46567-0.21167 0.16933-0.127 0.35983-0.33867 0.59266-0.55031 0.0423-0.0423 0.0847-0.0423 0.10584 0 0.0423 0.0212 0.0423 0.10584 0.0423 0.16934-0.35984 0.38097-0.6985 0.7408-1.016 0.95247-0.3175 0.254-0.635 0.381-0.9525 0.381-0.52917 0-0.8255-0.23283-0.8255-0.762 0-0.29633 0.0423-0.61381 0.10583-0.95247 0.10583-0.40217 0.21167-0.78317 0.35983-1.16417 0.14817-0.40217 0.3175-0.78317 0.48684-1.143 0.1905-0.381 0.35983-0.74083 0.5715-0.97367-0.16934 0.0635-0.381 0.16934-0.59267 0.3175-0.1905 0.127-0.35983 0.27517-0.508 0.381-0.0212 0.0423-0.10583 0.0423-0.10583 0z"/>
   <path d="m291.392 725.736c0.254 0.0635 0.35983 0.21167 0.35983 0.3175 0 0.16933-0.0635 0.38097-0.14816 0.59264-0.0635 0.21166-0.16934 0.381-0.23284 0.52916-0.0423 0.0423-0.0847 0.0423-0.10583 0-0.0423-0.0423-0.0847-0.0635-0.0847-0.10583 0.0423-0.14817 0.0847-0.27517 0.0847-0.46567 0-0.23283-0.0847-0.4233-0.1905-0.5503-0.10583-0.10583-0.27517-0.1905-0.4445-0.1905-0.29633 0-0.508 0.0847-0.67733 0.254-0.14817 0.14817-0.21167 0.3598-0.21167 0.6773 0 0.23284 0.0635 0.4445 0.16933 0.6985 0.14817 0.21167 0.29634 0.42334 0.42334 0.67734 0.1905 0.21166 0.35983 0.4445 0.46566 0.6985 0.14817 0.254 0.21167 0.52916 0.21167 0.84666 0 0.57148-0.21167 0.99481-0.67733 1.31231-0.42334 0.3175-1.016 0.4445-1.7145 0.4445-0.52917 0-0.95251-0.0635-1.24884-0.23283-0.3175-0.1905-0.4445-0.35984-0.4445-0.5715 0-0.0635 0.0212-0.14817 0.0635-0.254 0.0423-0.10584 0.10583-0.21167 0.16933-0.33864 0.10584-0.14817 0.1905-0.254 0.29634-0.35984 0.0635-0.14816 0.16933-0.254 0.27516-0.3175 0.0423-0.0423 0.0635-0.0423 0.10584 0.0423 0.0635 0.0212 0.0635 0.0635 0.0423 0.127-0.10584 0.0847-0.1905 0.1905-0.21167 0.29634-0.0423 0.10583-0.0847 0.21166-0.0847 0.38097 0 0.27517 0.10583 0.52917 0.29633 0.6985 0.16934 0.1905 0.42334 0.254 0.6985 0.254 0.42334 0 0.6985-0.10583 0.91017-0.3175 0.254-0.254 0.35983-0.52917 0.35983-0.84664 0-0.27517-0.0635-0.5715-0.21166-0.78317-0.10584-0.27516-0.254-0.52916-0.42334-0.74083l-0.42333-0.74083c-0.14817-0.23284-0.16933-0.52917-0.16933-0.762 0-0.42334 0.16933-0.74081 0.48683-1.03714 0.35983-0.23283 0.84667-0.381 1.524-0.381 0.3175 0 0.59267 0.0423 0.762 0.14817z"/>
  </g>
 </g>
</svg>
